<svg width="38" height="39" viewBox="0 0 38 39" fill="none" xmlns="http://www.w3.org/2000/svg">
<path d="M5.68577 16.4878H2.69238V38H5.68577V16.4878Z" stroke="#8D4F1B" style="stroke:#8D4F1B;stroke:color(display-p3 0.5540 0.3102 0.1071);stroke-opacity:1;" stroke-width="0.979336" stroke-miterlimit="10" stroke-linejoin="bevel"/>
<path d="M34.7571 16.4878H31.7637V38H34.7571V16.4878Z" stroke="#8D4F1B" style="stroke:#8D4F1B;stroke:color(display-p3 0.5540 0.3102 0.1071);stroke-opacity:1;" stroke-width="0.979336" stroke-miterlimit="10" stroke-linejoin="bevel"/>
<path d="M31.763 16.4878H5.68652V25.0462H31.763V16.4878Z" stroke="#8D4F1B" style="stroke:#8D4F1B;stroke:color(display-p3 0.5540 0.3102 0.1071);stroke-opacity:1;" stroke-width="0.979336" stroke-miterlimit="10" stroke-linejoin="bevel"/>
<path d="M31.763 25.0464H5.68652V33.6048H31.763V25.0464Z" stroke="#8D4F1B" style="stroke:#8D4F1B;stroke:color(display-p3 0.5540 0.3102 0.1071);stroke-opacity:1;" stroke-width="0.979336" stroke-miterlimit="10" stroke-linejoin="bevel"/>
<path d="M10.626 20.7671H13.9186" stroke="#8D4F1B" style="stroke:#8D4F1B;stroke:color(display-p3 0.5540 0.3102 0.1071);stroke-opacity:1;" stroke-width="0.979336" stroke-miterlimit="10" stroke-linejoin="bevel"/>
<path d="M22.749 20.7671H26.0417" stroke="#8D4F1B" style="stroke:#8D4F1B;stroke:color(display-p3 0.5540 0.3102 0.1071);stroke-opacity:1;" stroke-width="0.979336" stroke-miterlimit="10" stroke-linejoin="bevel"/>
<path d="M10.626 29.3257H13.9186" stroke="#8D4F1B" style="stroke:#8D4F1B;stroke:color(display-p3 0.5540 0.3102 0.1071);stroke-opacity:1;" stroke-width="0.979336" stroke-miterlimit="10" stroke-linejoin="bevel"/>
<path d="M22.749 29.3257H26.0417" stroke="#8D4F1B" style="stroke:#8D4F1B;stroke:color(display-p3 0.5540 0.3102 0.1071);stroke-opacity:1;" stroke-width="0.979336" stroke-miterlimit="10" stroke-linejoin="bevel"/>
<path d="M0 16.4878H37.7164" stroke="#8D4F1B" style="stroke:#8D4F1B;stroke:color(display-p3 0.5540 0.3102 0.1071);stroke-opacity:1;" stroke-width="0.979336" stroke-miterlimit="10" stroke-linejoin="bevel"/>
<path d="M5.68652 35.4097H31.763" stroke="#8D4F1B" style="stroke:#8D4F1B;stroke:color(display-p3 0.5540 0.3102 0.1071);stroke-opacity:1;" stroke-width="0.979336" stroke-miterlimit="10" stroke-linejoin="bevel"/>
<path d="M22.7322 13.9839H15.2402V16.3678H22.7322V13.9839Z" stroke="#8D4F1B" style="stroke:#8D4F1B;stroke:color(display-p3 0.5540 0.3102 0.1071);stroke-opacity:1;" stroke-width="0.979336" stroke-miterlimit="10" stroke-linejoin="bevel"/>
<path d="M18.7656 13.9838L22.7319 6.83203" stroke="#8D4F1B" style="stroke:#8D4F1B;stroke:color(display-p3 0.5540 0.3102 0.1071);stroke-opacity:1;" stroke-width="0.979336" stroke-miterlimit="10" stroke-linejoin="bevel"/>
<path d="M23.1724 7.30872C23.6592 7.30872 24.0538 6.77506 24.0538 6.11676C24.0538 5.45846 23.6592 4.9248 23.1724 4.9248C22.6856 4.9248 22.291 5.45846 22.291 6.11676C22.291 6.77506 22.6856 7.30872 23.1724 7.30872Z" stroke="#8D4F1B" style="stroke:#8D4F1B;stroke:color(display-p3 0.5540 0.3102 0.1071);stroke-opacity:1;" stroke-width="0.979336" stroke-miterlimit="10" stroke-linejoin="bevel"/>
<path d="M22.7322 5.40176L18.3252 3.49463" stroke="#8D4F1B" style="stroke:#8D4F1B;stroke:color(display-p3 0.5540 0.3102 0.1071);stroke-opacity:1;" stroke-width="0.979336" stroke-miterlimit="10" stroke-linejoin="bevel"/>
<path d="M13.333 1.64562L16.6746 8.0372L17.3676 7.61303C17.7655 7.36949 17.9056 6.82319 17.6804 6.39277L17.6131 6.26401C17.3656 5.79017 17.5196 5.18869 17.9576 4.92087L18.13 4.81529C18.568 4.54711 18.7223 3.94599 18.4744 3.47216L17.8093 2.20002C17.5614 1.72619 17.0058 1.55917 16.5678 1.82735C16.1299 2.09517 15.5739 1.92852 15.3263 1.45469C15.1012 1.02427 14.5963 0.872707 14.1984 1.11624L13.333 1.64562Z" stroke="#8D4F1B" style="stroke:#8D4F1B;stroke:color(display-p3 0.5540 0.3102 0.1071);stroke-opacity:1;" stroke-width="0.979336" stroke-miterlimit="10" stroke-linejoin="bevel"/>
<path d="M15.5199 5.83002C15.0152 6.13867 14.3749 5.94664 14.0893 5.40071C13.804 4.85477 13.9815 4.16205 14.4861 3.85303" stroke="#8D4F1B" style="stroke:#8D4F1B;stroke:color(display-p3 0.5540 0.3102 0.1071);stroke-opacity:1;" stroke-width="0.979336" stroke-miterlimit="10" stroke-linejoin="bevel"/>
</svg>
