<svg width="34" height="34" viewBox="0 0 34 34" fill="none" xmlns="http://www.w3.org/2000/svg">
<circle cx="17" cy="17" r="16.2545" stroke="black" style="stroke:black;stroke-opacity:1;" stroke-width="0.509091"/>
<mask id="mask0_1561_236" style="mask-type:alpha" maskUnits="userSpaceOnUse" x="5" y="5" width="24" height="24">
<rect x="5" y="5" width="24" height="24" fill="#D9D9D9" style="fill:#D9D9D9;fill:color(display-p3 0.8510 0.8510 0.8510);fill-opacity:1;"/>
</mask>
<g mask="url(#mask0_1561_236)">
<path d="M26.6131 17.2231L21.4473 22.3733C21.3482 22.4721 21.2662 22.5345 21.2057 22.5724C21.1897 22.503 21.176 22.401 21.176 22.2613V19.8559C21.176 19.4878 20.8766 19.1894 20.5074 19.1894C17.5368 19.1894 14.6983 19.8679 12.0708 21.2061C10.1845 22.1667 8.46021 23.4599 7 25C7.97139 18.4369 13.6588 13.383 20.5074 13.383C20.8766 13.383 21.176 13.0846 21.176 12.7165V10.3111C21.176 10.1714 21.1897 10.0694 21.2056 10C21.2661 10.0379 21.3482 10.1003 21.4473 10.1991L26.6131 15.3492C26.8626 15.5979 27 15.9307 27 16.2862C27 16.6417 26.8626 16.9744 26.6131 17.2231Z" stroke="#252525" style="stroke:#252525;stroke:color(display-p3 0.1464 0.1464 0.1464);stroke-opacity:1;" stroke-width="0.97"/>
</g>
</svg>
