<svg width="34" height="34" viewBox="0 0 34 34" fill="none" xmlns="http://www.w3.org/2000/svg">
<circle cx="17" cy="17" r="16.2545" stroke="black" style="stroke:black;stroke-opacity:1;" stroke-width="0.509091"/>
<mask id="mask0_1561_153" style="mask-type:luminance" maskUnits="userSpaceOnUse" x="5" y="5" width="24" height="24">
<path d="M28.9697 28.9697V5.03027H5.03027V28.9697H28.9697Z" fill="white" stroke="white" style="fill:white;fill-opacity:1;stroke:white;stroke-opacity:1;" stroke-width="0.0601574"/>
</mask>
<g mask="url(#mask0_1561_153)">
<path d="M16.8008 24.6865C16.9508 24.773 17.1354 24.7726 17.2852 24.6855H17.2861L17.2871 24.6846C17.2883 24.6839 17.2908 24.6829 17.293 24.6816C17.2973 24.6791 17.3036 24.6756 17.3115 24.6709C17.3276 24.6614 17.3507 24.647 17.3809 24.6289C17.4416 24.5925 17.5298 24.5383 17.6416 24.4688C17.8652 24.3297 18.184 24.1271 18.5654 23.8691C19.3273 23.3539 20.3456 22.6166 21.3672 21.7324C22.3866 20.85 23.4228 19.8094 24.209 18.6846C24.9919 17.5643 25.5564 16.3188 25.5645 15.0371L25.5596 14.7822C25.4525 12.1619 23.4515 10.0149 20.9414 10.0146C19.2833 10.0146 17.8543 10.9573 17.042 12.3447C16.2297 10.9575 14.8015 10.0147 13.1436 10.0146C10.6282 10.0146 8.66331 12.1661 8.52734 14.7773L8.52051 15.0312C8.5124 16.3154 9.06996 17.5626 9.85059 18.6836C10.6346 19.8093 11.673 20.8509 12.6963 21.7334C13.7217 22.6178 14.7462 23.3549 15.5127 23.8701C15.8962 24.1279 16.2164 24.3307 16.4414 24.4697C16.554 24.5393 16.643 24.5934 16.7041 24.6299C16.7344 24.648 16.7582 24.6614 16.7744 24.6709C16.7825 24.6757 16.7886 24.6801 16.793 24.6826C16.795 24.6838 16.7967 24.6849 16.7979 24.6855H16.7998V24.6865C16.7999 24.6866 16.8002 24.6863 16.9258 24.4688L16.8008 24.6865Z" stroke="#252525" style="stroke:#252525;stroke:color(display-p3 0.1464 0.1464 0.1464);stroke-opacity:1;" stroke-width="0.967273" stroke-miterlimit="10" stroke-linecap="round" stroke-linejoin="round"/>
</g>
</svg>
