<svg width="39" height="26" viewBox="0 0 39 26" fill="none" xmlns="http://www.w3.org/2000/svg">
<rect x="0.222656" y="1" width="38.3275" height="24" rx="3.4221" fill="white" stroke="#666666" style="fill:white;fill-opacity:1;stroke:#666666;stroke:color(display-p3 0.3985 0.3985 0.3985);stroke-opacity:1;" stroke-width="0.273768"/>
<path fill-rule="evenodd" clip-rule="evenodd" d="M2.96094 10.4531C2.96062 10.3655 2.9732 10.3336 3.0695 10.3351C3.56342 10.3423 4.05785 10.3281 4.55145 10.3439C5.27763 10.3672 5.9375 10.5854 6.47572 11.1144C6.84619 11.4784 7.07903 11.9241 7.1707 12.4412C7.35327 13.4714 7.07165 14.3456 6.31073 15.0445C5.89532 15.426 5.39755 15.6178 4.84765 15.6635C4.24158 15.714 3.63378 15.6739 3.02694 15.6875C2.95433 15.6892 2.96242 15.6487 2.96248 15.6017C2.963 15.0744 2.96409 11.3058 2.96094 10.4531ZM3.97132 14.6816C3.97093 14.754 3.98563 14.7772 4.05997 14.7762C4.26232 14.7735 4.46505 14.7756 4.66617 14.7524C5.03343 14.7099 5.37791 14.6013 5.64676 14.3238C6.0987 13.8575 6.26477 13.2904 6.13927 12.6487C6.01287 12.0025 5.65222 11.5471 5.02682 11.3472C4.72221 11.2499 4.40547 11.256 4.09021 11.2519C4.0004 11.2507 3.96926 11.269 3.97029 11.3707C3.97588 11.9189 3.97434 14.1262 3.97132 14.6816Z" fill="#231F20" style="fill:#231F20;fill:color(display-p3 0.1373 0.1216 0.1255);fill-opacity:1;"/>
<path fill-rule="evenodd" clip-rule="evenodd" d="M33.6155 13.4439C34.1587 14.1932 34.6934 14.9306 35.2409 15.6859C35.1557 15.6859 35.0891 15.6859 35.0224 15.6859C34.717 15.6859 34.4114 15.681 34.1061 15.6888C34.0136 15.6912 33.967 15.6557 33.919 15.5816C33.4956 14.927 33.0685 14.2749 32.6425 13.622C32.6368 13.6132 32.6298 13.6049 32.6259 13.5952C32.6002 13.53 32.5449 13.5343 32.4958 13.5447C32.4417 13.5562 32.4676 13.6086 32.4674 13.6415C32.4658 14.2822 32.4635 14.9229 32.4689 15.5635C32.4698 15.67 32.4392 15.6908 32.3432 15.6883C32.0757 15.6812 31.8078 15.6838 31.5401 15.6872C31.4727 15.6882 31.4452 15.6755 31.4453 15.5965C31.4476 13.8726 31.4472 12.1487 31.4461 10.4249C31.4461 10.3664 31.4522 10.3349 31.5222 10.3365C32.0984 10.3488 32.6754 10.3128 33.2509 10.3583C33.6506 10.39 34.0266 10.5014 34.3339 10.7824C34.7025 11.1196 34.8063 11.5619 34.7812 12.0491C34.7443 12.7657 34.3657 13.2388 33.6911 13.4152C33.6684 13.4211 33.6468 13.4318 33.6155 13.4439ZM32.4663 11.9945C32.4663 12.2312 32.4704 12.468 32.464 12.7045C32.4618 12.7874 32.4873 12.8037 32.5612 12.8006C32.7116 12.7943 32.862 12.7976 33.0125 12.7813C33.4528 12.7333 33.7033 12.4708 33.736 12.0158C33.7623 11.6495 33.5808 11.3724 33.2429 11.2581C33.0207 11.183 32.7915 11.1912 32.5625 11.1866C32.4877 11.1851 32.4622 11.2019 32.4643 11.2844C32.4701 11.5209 32.4663 11.7577 32.4663 11.9945Z" fill="#231F20" style="fill:#231F20;fill:color(display-p3 0.1373 0.1216 0.1255);fill-opacity:1;"/>
<path fill-rule="evenodd" clip-rule="evenodd" d="M27.9219 10.4419C27.9216 10.3616 27.9374 10.3354 28.0213 10.3358C28.9135 10.3393 29.8057 10.3387 30.6979 10.3364C30.7673 10.3362 30.7924 10.3502 30.7908 10.4278C30.7858 10.6754 30.7858 10.9233 30.7908 11.1709C30.7924 11.2456 30.7655 11.2556 30.703 11.2553C30.1505 11.2531 29.598 11.2567 29.0456 11.2515C28.9516 11.2506 28.9329 11.2788 28.9345 11.3697C28.94 11.6917 28.9394 12.0139 28.9347 12.3359C28.9335 12.4163 28.9554 12.4358 29.032 12.4353C29.5639 12.4318 30.0958 12.4357 30.6277 12.4311C30.7117 12.4304 30.7278 12.4571 30.7261 12.5367C30.7212 12.7737 30.7213 13.0109 30.7262 13.248C30.7277 13.3229 30.707 13.3407 30.6357 13.3403C30.1072 13.3371 29.5788 13.3415 29.0504 13.3359C28.9518 13.3348 28.9336 13.3669 28.9346 13.4601C28.9394 13.8635 28.9387 14.267 28.9349 14.6704C28.9341 14.7507 28.9503 14.7771 29.0343 14.7764C29.5867 14.7721 30.1392 14.7762 30.6917 14.772C30.7742 14.7714 30.7926 14.7956 30.7909 14.8766C30.7857 15.1207 30.7874 15.365 30.7902 15.6092C30.7909 15.6677 30.777 15.6875 30.7168 15.6874C29.8109 15.6855 28.905 15.6848 27.999 15.6883C27.9165 15.6886 27.9231 15.647 27.9232 15.5915C27.9237 14.7278 27.9246 11.2948 27.9219 10.4419Z" fill="#231F20" style="fill:#231F20;fill:color(display-p3 0.1373 0.1216 0.1255);fill-opacity:1;"/>
<path fill-rule="evenodd" clip-rule="evenodd" d="M9.73338 14.1407C9.86986 14.4041 10.0499 14.6185 10.315 14.7386C10.5999 14.8677 10.8932 14.9127 11.189 14.7763C11.4577 14.6525 11.6028 14.4315 11.6144 14.1306C11.6259 13.8325 11.4712 13.6329 11.2209 13.504C10.9331 13.3558 10.6218 13.2678 10.3278 13.136C10.0404 13.0073 9.76657 12.8583 9.56814 12.5946C9.44687 12.4335 9.3796 12.2493 9.3561 12.0521C9.25133 11.1737 9.71772 10.5455 10.4252 10.3391C11.164 10.1235 11.8295 10.313 12.4256 10.7961C12.4696 10.8318 12.4847 10.8569 12.4425 10.9114C12.2907 11.1075 12.1424 11.3064 11.999 11.5089C11.9554 11.5706 11.9364 11.5531 11.8966 11.5094C11.7345 11.3309 11.5484 11.1864 11.3072 11.1508C11.0028 11.1059 10.7148 11.1461 10.5029 11.4064C10.3135 11.639 10.3555 11.9321 10.5948 12.1074C10.809 12.2643 11.0587 12.3434 11.3003 12.4396C11.5267 12.53 11.748 12.6309 11.9597 12.7547C12.3917 13.0073 12.6291 13.3778 12.66 13.897C12.7122 14.7736 12.2653 15.514 11.433 15.7345C10.545 15.9698 9.67734 15.7092 9.10767 14.8419C9.08417 14.8061 9.0816 14.7852 9.11396 14.7535C9.32022 14.5517 9.52455 14.3478 9.73338 14.1407Z" fill="#231F20" style="fill:#231F20;fill:color(display-p3 0.1373 0.1216 0.1255);fill-opacity:1;"/>
<path fill-rule="evenodd" clip-rule="evenodd" d="M22.4844 10.3379C22.8364 10.3379 23.1726 10.3403 23.5086 10.336C23.5759 10.3351 23.6021 10.36 23.6254 10.4207C23.9347 11.2285 24.8262 13.5415 24.9632 13.8985C25.0257 13.8273 25.9164 11.4974 26.3363 10.4171C26.3531 10.374 26.3651 10.336 26.4261 10.3365C26.769 10.3396 27.112 10.338 27.4695 10.338C27.3879 10.5401 25.919 14.1346 25.2653 15.7397C25.2394 15.8033 25.2107 15.8241 25.1464 15.8216C25.0162 15.8165 24.8857 15.8168 24.7555 15.8215C24.6975 15.8236 24.6713 15.8018 24.6498 15.748C24.2469 14.7401 22.8334 11.2181 22.5314 10.4642C22.5158 10.4257 22.5023 10.3863 22.4844 10.3379Z" fill="#231F20" style="fill:#231F20;fill:color(display-p3 0.1373 0.1216 0.1255);fill-opacity:1;"/>
<path fill-rule="evenodd" clip-rule="evenodd" d="M16.9741 11.7841C16.7828 11.5954 16.5995 11.4369 16.3805 11.3325C15.519 10.9216 14.4818 11.3629 14.1497 12.3053C13.8939 13.0313 13.979 13.7215 14.4929 14.3109C14.8366 14.7051 15.2906 14.8489 15.7969 14.8434C16.1985 14.8391 16.5309 14.6706 16.8246 14.4029C16.8679 14.3635 16.9097 14.3225 16.9517 14.2825C16.9883 14.3031 16.9732 14.335 16.9733 14.3599C16.9744 14.7102 16.9734 15.0607 16.9747 15.4111C16.9749 15.4643 16.9673 15.4967 16.9113 15.5245C15.8709 16.0412 14.5547 15.8367 13.7407 14.9773C13.237 14.4455 12.989 13.8035 12.9733 13.0603C12.9468 11.8028 13.7592 10.7062 14.8893 10.354C15.5828 10.1379 16.2598 10.1792 16.913 10.5173C16.9481 10.5354 16.9754 10.5511 16.9752 10.6013C16.9732 10.9869 16.9741 11.3725 16.9741 11.7841Z" fill="#231F20" style="fill:#231F20;fill:color(display-p3 0.1373 0.1216 0.1255);fill-opacity:1;"/>
<path fill-rule="evenodd" clip-rule="evenodd" d="M8.70027 15.5693C8.70059 15.6571 8.68794 15.6917 8.5905 15.6888C8.31619 15.6805 8.04143 15.6838 7.76693 15.6874C7.70029 15.6884 7.67982 15.6707 7.67988 15.5997C7.68174 13.876 7.68187 12.1522 7.67969 10.4284C7.67956 10.3508 7.70447 10.3355 7.77348 10.3364C8.04458 10.3402 8.3158 10.3421 8.58677 10.3356C8.67652 10.3334 8.7013 10.3557 8.70085 10.4511C8.6968 11.3076 8.69732 14.7197 8.70027 15.5693Z" fill="#231F20" style="fill:#231F20;fill:color(display-p3 0.1373 0.1216 0.1255);fill-opacity:1;"/>
<path fill-rule="evenodd" clip-rule="evenodd" d="M35.4732 10.7562C35.5222 10.8238 35.5705 10.8904 35.62 10.9586C35.6123 10.9586 35.6062 10.9586 35.6002 10.9586C35.5726 10.9586 35.5451 10.9581 35.5175 10.9588C35.5092 10.9591 35.505 10.9559 35.5006 10.9492C35.4624 10.89 35.4238 10.8312 35.3854 10.7723C35.3849 10.7715 35.3842 10.7707 35.3839 10.7699C35.3816 10.7639 35.3766 10.7643 35.3722 10.7652C35.3673 10.7663 35.3696 10.771 35.3696 10.774C35.3695 10.8318 35.3692 10.8896 35.3697 10.9475C35.3698 10.9571 35.367 10.959 35.3584 10.9588C35.3342 10.9582 35.31 10.9584 35.2859 10.9587C35.2798 10.9588 35.2773 10.9576 35.2773 10.9505C35.2775 10.7949 35.2775 10.6392 35.2775 10.4837C35.2775 10.4784 35.278 10.4756 35.2843 10.4756C35.3363 10.4768 35.3884 10.4735 35.4404 10.4776C35.4765 10.4804 35.5104 10.4905 35.5382 10.5159C35.5714 10.5463 35.5808 10.5863 35.5785 10.6302C35.5752 10.6949 35.5411 10.7376 35.4801 10.7536C35.478 10.754 35.476 10.755 35.4732 10.7562ZM35.3694 10.6253C35.3694 10.6467 35.3698 10.668 35.3692 10.6894C35.369 10.6968 35.3713 10.6984 35.378 10.6981C35.3916 10.6975 35.4052 10.6978 35.4187 10.6963C35.4585 10.692 35.481 10.6683 35.484 10.6273C35.4864 10.5942 35.47 10.5691 35.4395 10.5589C35.4195 10.5521 35.3987 10.5528 35.3781 10.5524C35.3713 10.5523 35.369 10.5538 35.3692 10.5612C35.3698 10.5825 35.3694 10.6039 35.3694 10.6253Z" fill="#231F20" style="fill:#231F20;fill:color(display-p3 0.1373 0.1216 0.1255);fill-opacity:1;"/>
<path d="M20.0414 15.8496C21.5549 15.8496 22.7819 14.5796 22.7819 13.013C22.7819 11.4464 21.5549 10.1765 20.0414 10.1765C18.5278 10.1765 17.3008 11.4464 17.3008 13.013C17.3008 14.5796 18.5278 15.8496 20.0414 15.8496Z" fill="url(#paint0_linear_1566_606)" style=""/>
<path d="M20.0414 15.8496C21.5549 15.8496 22.7819 14.5796 22.7819 13.013C22.7819 11.4464 21.5549 10.1765 20.0414 10.1765C18.5278 10.1765 17.3008 11.4464 17.3008 13.013C17.3008 14.5796 18.5278 15.8496 20.0414 15.8496Z" fill="url(#paint1_linear_1566_606)" style=""/>
<defs>
<linearGradient id="paint0_linear_1566_606" x1="18.8795" y1="10.4432" x2="21.3235" y2="15.525" gradientUnits="userSpaceOnUse">
<stop offset="0.3831" stop-color="#E45E26" style="stop-color:#E45E26;stop-color:color(display-p3 0.8941 0.3686 0.1490);stop-opacity:1;"/>
<stop offset="1" stop-color="#F8A020" style="stop-color:#F8A020;stop-color:color(display-p3 0.9725 0.6275 0.1255);stop-opacity:1;"/>
</linearGradient>
<linearGradient id="paint1_linear_1566_606" x1="18.6672" y1="10.5582" x2="21.5448" y2="15.3908" gradientUnits="userSpaceOnUse">
<stop stop-color="#80391B" style="stop-color:#80391B;stop-color:color(display-p3 0.5020 0.2235 0.1059);stop-opacity:1;"/>
<stop offset="0.1105" stop-color="#843B1B" stop-opacity="0.8161" style="stop-color:#843B1B;stop-color:color(display-p3 0.5176 0.2314 0.1059);stop-opacity:0.8161;"/>
<stop offset="0.2346" stop-color="#92401D" stop-opacity="0.6096" style="stop-color:#92401D;stop-color:color(display-p3 0.5725 0.2510 0.1137);stop-opacity:0.6096;"/>
<stop offset="0.3653" stop-color="#A8481F" stop-opacity="0.3922" style="stop-color:#A8481F;stop-color:color(display-p3 0.6588 0.2824 0.1216);stop-opacity:0.3922;"/>
<stop offset="0.4996" stop-color="#C75323" stop-opacity="0.1687" style="stop-color:#C75323;stop-color:color(display-p3 0.7804 0.3255 0.1373);stop-opacity:0.1687;"/>
<stop offset="0.601" stop-color="#E45E26" stop-opacity="0" style="stop-color:none;stop-opacity:0;"/>
<stop offset="1" stop-color="#F8A020" stop-opacity="0" style="stop-color:none;stop-opacity:0;"/>
</linearGradient>
</defs>
</svg>
