<svg width="40" height="26" viewBox="0 0 40 26" fill="none" xmlns="http://www.w3.org/2000/svg">
<rect x="1" y="1" width="38.3275" height="24" rx="3.4221" fill="white" stroke="#666666" style="fill:white;fill-opacity:1;stroke:#666666;stroke:color(display-p3 0.3985 0.3985 0.3985);stroke-opacity:1;" stroke-width="0.273768"/>
<path d="M30.2456 5.94116H10.5906C9.83081 5.94116 9.21484 6.57644 9.21484 7.3601V19.2965C9.21484 20.0802 9.83081 20.7155 10.5906 20.7155H30.2456C31.0055 20.7155 31.6214 20.0802 31.6214 19.2965V7.3601C31.6214 6.57644 31.0055 5.94116 30.2456 5.94116Z" fill="url(#paint0_linear_1566_607)" style=""/>
<path fill-rule="evenodd" clip-rule="evenodd" d="M15.1873 13.1875L15.287 12.7813C15.6704 12.6622 16.4528 12.608 16.5998 13.0359C16.6838 13.285 16.4423 14.3194 16.395 14.6227L16.0222 14.6281C15.9382 14.5198 16.0064 14.7202 15.9487 14.4548C15.5916 14.7852 14.8302 14.731 14.8879 14.0649C14.9457 13.4041 15.5023 13.4908 16.1062 13.3933C16.0957 12.9709 15.5811 13.0846 15.182 13.1821L15.1873 13.1875ZM17.9966 13.1225C17.6553 13.1225 17.6028 13.0467 17.3035 13.1821C17.3402 13.5666 17.5345 13.415 17.8023 13.5991C18.3117 13.9457 17.7656 15.0181 16.5525 14.5577L16.6208 14.1678C16.9621 14.2382 17.1354 14.3086 17.398 14.1569C17.461 13.6099 16.521 13.9674 16.7836 13.09C16.9254 12.6134 17.5503 12.6784 18.0649 12.7272L17.9914 13.1225H17.9966ZM12.7665 12.2939L13.5699 12.321L13.6539 13.6208L14.0898 12.5809C14.2368 12.2072 14.137 12.2885 15.0612 12.2993L14.6464 14.6227L14.1948 14.6173L14.4416 12.9492L13.7747 14.6281L13.2338 14.6119C13.2181 14.2869 13.1918 13.1442 13.1078 12.9276L12.8347 14.6173L12.3621 14.6119L12.7665 12.2939ZM20.4279 17.2277L20.6484 16.9569C20.2073 16.8973 20.1286 17.0273 19.929 16.659L20.9425 16.6482C21.0055 16.5399 21.1105 16.437 21.163 16.3124C20.0078 16.2312 19.6822 16.5345 19.4984 16.0146H21.3521L21.5569 15.6842L19.2674 15.6734L19.1624 15.3972L21.6304 15.3863C21.7722 15.3051 21.7722 15.213 21.8089 15.0451L19.4722 15.0397C19.0521 15.0451 19.0258 15.1426 18.9471 14.7473H21.8877L21.9822 14.4115L21.121 14.4007L21.079 14.6281L20.5854 14.6065L20.8952 12.7163L21.3626 12.7813C21.3626 12.7922 21.3731 12.8301 21.3731 12.8463C21.3731 12.8571 21.3783 12.8734 21.3783 12.8788L21.4046 12.9763C21.5359 12.8138 21.6199 12.6947 21.9245 12.7055L21.7669 13.1442C21.6777 13.2633 21.4151 13.1279 21.3048 13.4529L21.8194 13.4745C21.8772 13.1334 21.9402 13.0305 22.0347 12.7542L22.04 12.5918L18.821 12.5972L18.8105 12.7163C18.9838 12.7163 18.9786 12.6838 19.0783 12.7705L19.0311 13.09C18.7055 13.1713 18.716 12.9709 18.6845 13.4096C18.7318 13.4908 18.674 13.4475 18.7738 13.4745L18.9786 13.48C19.3094 12.3697 20.2966 12.6134 20.5224 12.96C20.6432 13.1442 20.764 13.7508 20.4646 13.7995L19.4617 13.8103C19.5089 14.3573 20.1181 14.2436 20.5119 14.1082C20.4962 14.3357 20.5119 14.5198 20.3071 14.5956C20.1443 14.6552 19.803 14.6389 19.6245 14.5956C19.1834 14.4927 18.9943 14.2653 18.9628 13.7724L18.7738 13.767C18.6005 13.6858 18.737 13.767 18.6478 13.545C18.5742 13.9999 18.3747 14.2923 18.9208 14.2273C18.8893 14.4981 18.9261 14.5902 18.6372 14.6227C17.7971 14.7256 18.0701 14.1461 18.2067 13.3716C18.422 12.1368 18.2539 12.2885 18.863 12.2993L21.9927 12.3047L21.9297 11.969L18.9051 11.9581L18.9628 11.6873L21.8247 11.6711C21.7512 11.2107 21.7354 11.3245 20.6957 11.3245C20.1653 11.3245 19.6402 11.3245 19.1099 11.3245C19.2201 10.9291 19.1624 11.0374 20.1916 11.0374H21.5831L21.4361 10.6962L19.4197 10.6908L19.5562 10.4092L21.2418 10.3984C21.0265 9.94344 21.037 10.0734 19.845 10.0518C19.9973 9.66182 20.2651 9.7593 20.7325 9.7593C20.6012 9.54267 20.5067 9.55892 20.4279 9.37478C20.2336 9.27188 20.0603 9.08774 19.866 8.94693C18.3799 7.86377 16.3635 7.75004 14.7462 8.56241C13.2916 9.28813 11.8633 10.967 11.879 13.2904C11.9 16.6103 14.7252 19.0312 17.9231 18.4679C19.4249 18.2026 19.803 17.5743 20.4226 17.2223L20.4279 17.2277Z" fill="#E41D2C" style="fill:#E41D2C;fill:color(display-p3 0.8941 0.1137 0.1725);fill-opacity:1;"/>
<path fill-rule="evenodd" clip-rule="evenodd" d="M24.0306 12.7098C25.6584 12.3686 25.3906 13.1972 25.2594 13.8688C25.2173 14.0691 25.2173 14.4645 25.0651 14.5728C25.0283 14.5728 24.813 14.5782 24.792 14.5674C24.645 14.5078 24.7132 14.6865 24.6922 14.4103C24.2511 14.6703 23.5527 14.7299 23.6368 14.0041C23.705 13.4247 24.2721 13.3326 24.8498 13.3597C24.8288 12.9318 24.4507 13.0022 23.9256 13.1376L24.0358 12.7098H24.0306ZM25.6374 12.661L26.0733 12.6664C26.0785 12.6773 26.0838 12.6935 26.0838 12.7044L26.152 12.9047C26.2308 12.7802 26.3778 12.6719 26.6089 12.6664L26.5459 13.051L26.3306 13.1376C25.9 13.2838 25.9262 13.8417 25.8107 14.5728H25.3224L25.6374 12.661ZM27.9532 12.2494H28.3995L28.0162 14.5782C27.5173 14.5836 27.6381 14.6107 27.4806 14.4158C27.155 14.914 26.1783 14.4537 26.4776 13.4247C26.6982 12.6556 27.4438 12.4498 27.8114 12.9047L27.9584 12.244L27.9532 12.2494ZM20.6068 9.32489C20.6856 9.50903 20.7854 9.49278 20.9114 9.70941C20.4441 9.70941 20.1763 9.60651 20.024 10.0019C21.216 10.0235 21.2055 9.89355 21.4208 10.3485L19.7352 10.3593L19.5986 10.6409L21.6151 10.6463L21.7621 10.9875C21.3 10.9875 20.8379 10.9875 20.3705 10.9875C19.3466 10.9875 19.3991 10.8846 19.2888 11.2746H20.8747C21.9144 11.2746 21.9301 11.1608 22.0037 11.6212L19.1418 11.6374L19.084 11.9082L22.1087 11.9191L22.1717 12.2548L19.042 12.2494L19 12.5527L22.2189 12.5473L22.2137 12.7098C22.4552 12.4715 22.4132 12.3469 22.8648 12.2115C23.2377 12.1032 23.474 12.1844 23.8415 12.2657L23.7628 12.7639C23.1326 12.569 22.7231 12.6177 22.576 13.2893C22.4132 14.0096 22.9646 14.2804 23.5475 13.9933C23.495 14.5187 23.411 14.6486 22.8123 14.5674C22.3975 14.5132 22.2715 14.3074 22.0877 14.0529H21.3368L21.2947 14.3508L22.1559 14.3616L22.0614 14.6974H19.1208C19.1995 15.0927 19.2258 14.9952 19.6459 14.9898L21.9826 14.9952C21.9406 15.1577 21.9459 15.2552 21.8041 15.3364L19.3361 15.3473L19.4411 15.6235L21.7306 15.6343L21.5258 15.9647H19.6721C19.8559 16.4792 20.1815 16.1813 21.3368 16.2625C21.2842 16.3871 21.1792 16.49 21.1162 16.5983L20.1027 16.6092C20.297 16.972 20.381 16.8474 20.8221 16.907L20.6016 17.1778C21.3525 17.7465 21.9354 18.2231 23.1484 18.4397C24.2511 18.6347 25.4011 18.418 26.2886 17.9685C30.1324 16.0134 30.0274 10.381 26.2571 8.51793C24.9023 7.85179 23.1064 7.79222 21.7043 8.55043C21.0269 8.91329 20.8642 9.17325 20.6121 9.33031L20.6068 9.32489Z" fill="#F8B02B" style="fill:#F8B02B;fill:color(display-p3 0.9725 0.6902 0.1686);fill-opacity:1;"/>
<path fill-rule="evenodd" clip-rule="evenodd" d="M12.3633 14.6173L12.8359 14.6227L13.1089 12.9329C13.193 13.1496 13.2192 14.2923 13.235 14.6173L13.7758 14.6335L14.4427 12.9546L14.1959 14.6227L14.6475 14.6281L15.0624 12.3047C14.1382 12.2939 14.2379 12.2126 14.0909 12.5863L13.6551 13.6262L13.571 12.3264L12.7676 12.2993L12.3633 14.6173Z" fill="#FEFEFE" style="fill:#FEFEFE;fill:color(display-p3 0.9961 0.9961 0.9961);fill-opacity:1;"/>
<path fill-rule="evenodd" clip-rule="evenodd" d="M26.9955 14.1894C26.6017 13.7724 26.9378 13.0791 27.3053 13.1712C27.6677 13.2633 27.5994 14.1786 26.9955 14.1894ZM27.6362 12.96C27.2686 12.5051 26.5282 12.7109 26.3024 13.4799C26.0031 14.5035 26.9798 14.9693 27.3053 14.471C27.4629 14.666 27.3421 14.6335 27.8409 14.6335L28.2243 12.3047H27.7779L27.6309 12.9654L27.6362 12.96Z" fill="#FEFEFE" style="fill:#FEFEFE;fill:color(display-p3 0.9961 0.9961 0.9961);fill-opacity:1;"/>
<path fill-rule="evenodd" clip-rule="evenodd" d="M24.028 14.1948C23.9545 13.8319 24.28 13.6911 24.5899 13.7561C24.6056 14.1243 24.3536 14.3247 24.028 14.1948ZM23.8599 12.7704L23.7497 13.1982C24.2748 13.0683 24.6581 12.9979 24.6739 13.4203C24.0962 13.3932 23.5291 13.4853 23.4609 14.0648C23.3716 14.7905 24.0752 14.7309 24.5163 14.471C24.5373 14.7472 24.4691 14.5684 24.6161 14.628C24.6371 14.6388 24.8524 14.6334 24.8892 14.6334C25.0467 14.5305 25.0467 14.1298 25.0835 13.9294C25.22 13.2524 25.4826 12.4292 23.8547 12.7704H23.8599Z" fill="#FEFEFE" style="fill:#FEFEFE;fill:color(display-p3 0.9961 0.9961 0.9961);fill-opacity:1;"/>
<path fill-rule="evenodd" clip-rule="evenodd" d="M16.0233 13.7399C16.0338 13.9241 16.0023 14.0649 15.8868 14.157C15.808 14.2165 15.5717 14.2869 15.4772 14.1949C15.1831 13.9187 15.7345 13.7345 16.0181 13.7399H16.0233ZM15.1884 13.1875C15.5875 13.09 16.1021 12.9763 16.1126 13.3987C15.5087 13.4962 14.9521 13.4096 14.8943 14.0703C14.8313 14.7364 15.5927 14.7906 15.955 14.4602C16.0128 14.7256 15.9445 14.5252 16.0286 14.6335L16.4014 14.6281C16.4486 14.3194 16.6902 13.2904 16.6062 13.0413C16.4591 12.608 15.682 12.6622 15.2934 12.7868L15.1936 13.1929L15.1884 13.1875Z" fill="#FEFEFE" style="fill:#FEFEFE;fill:color(display-p3 0.9961 0.9961 0.9961);fill-opacity:1;"/>
<path fill-rule="evenodd" clip-rule="evenodd" d="M19.5425 13.4582C19.6107 13.182 19.7263 13.0683 20.0361 13.1116C20.1463 13.2741 20.1463 13.2253 20.1674 13.4582H19.5425ZM18.9858 13.4853L18.9648 13.7777C18.9964 14.2706 19.1906 14.4926 19.6265 14.6009C19.805 14.6443 20.1463 14.6605 20.3091 14.6009C20.5139 14.5305 20.4982 14.341 20.5139 14.1135C20.1201 14.2489 19.511 14.3626 19.4637 13.8156L20.4667 13.8048C20.766 13.7561 20.6452 13.1549 20.5244 12.9654C20.2986 12.6188 19.3114 12.375 18.9806 13.4853H18.9858Z" fill="#FEFEFE" style="fill:#FEFEFE;fill:color(display-p3 0.9961 0.9961 0.9961);fill-opacity:1;"/>
<path fill-rule="evenodd" clip-rule="evenodd" d="M22.0434 12.765C21.9489 13.0412 21.8859 13.1441 21.8281 13.4853V13.7831L21.9174 14.1135C22.1012 14.368 22.2272 14.5738 22.6421 14.628C23.2407 14.7092 23.3247 14.5793 23.3772 14.0539C22.7891 14.341 22.243 14.0702 22.4058 13.3499C22.558 12.6729 22.9676 12.6296 23.5925 12.8245L23.6713 12.3263C23.3037 12.2505 23.0674 12.1692 22.6946 12.2721C22.243 12.4021 22.285 12.5321 22.0434 12.7704V12.765Z" fill="#FEFEFE" style="fill:#FEFEFE;fill:color(display-p3 0.9961 0.9961 0.9961);fill-opacity:1;"/>
<path fill-rule="evenodd" clip-rule="evenodd" d="M18.067 12.7271C17.5524 12.6838 16.9275 12.6134 16.7857 13.09C16.5232 13.9673 17.4579 13.6099 17.4001 14.1569C17.1323 14.3085 16.9643 14.2381 16.623 14.1677L16.5547 14.5576C17.7677 15.018 18.3086 13.9511 17.8045 13.599C17.5367 13.4149 17.3424 13.572 17.3056 13.182C17.6049 13.0412 17.6522 13.1225 17.9988 13.1225L18.0723 12.7271H18.067Z" fill="#FEFEFE" style="fill:#FEFEFE;fill:color(display-p3 0.9961 0.9961 0.9961);fill-opacity:1;"/>
<path fill-rule="evenodd" clip-rule="evenodd" d="M18.6531 13.5504L18.6899 13.4204C18.7214 12.9817 18.7109 13.1821 19.0365 13.1009L19.0837 12.7813C18.984 12.6947 18.9892 12.7272 18.8159 12.7272L18.8264 12.608L18.8684 12.3047C18.2593 12.2939 18.4273 12.1423 18.212 13.3771C18.0755 14.1515 17.8024 14.731 18.6426 14.6281C18.9262 14.5956 18.8947 14.5036 18.9262 14.2328C18.3853 14.2978 18.5849 14.0053 18.6531 13.5504Z" fill="#FEFEFE" style="fill:#FEFEFE;fill:color(display-p3 0.9961 0.9961 0.9961);fill-opacity:1;"/>
<path fill-rule="evenodd" clip-rule="evenodd" d="M21.1241 14.4115L21.1661 14.1136L21.2186 13.7887L21.3132 13.4637C21.4287 13.1388 21.6912 13.2741 21.7753 13.155L21.9328 12.7163C21.623 12.7055 21.539 12.8246 21.4129 12.9871L21.3867 12.8896C21.3867 12.8842 21.3814 12.868 21.3814 12.8571C21.3814 12.8463 21.3709 12.803 21.3709 12.7921L20.9036 12.7272L20.5938 14.6173L21.0874 14.6389L21.1294 14.4115H21.1241Z" fill="#FEFEFE" style="fill:#FEFEFE;fill:color(display-p3 0.9961 0.9961 0.9961);fill-opacity:1;"/>
<path fill-rule="evenodd" clip-rule="evenodd" d="M25.1523 14.6281H25.6407C25.7562 13.897 25.73 13.3391 26.1606 13.1929L26.3759 13.1062L26.4389 12.7217C26.2078 12.7271 26.0608 12.8355 25.982 12.96L25.9138 12.7596C25.9085 12.7488 25.9085 12.7326 25.9033 12.7217L25.4674 12.7163L25.1523 14.6281Z" fill="#FEFEFE" style="fill:#FEFEFE;fill:color(display-p3 0.9961 0.9961 0.9961);fill-opacity:1;"/>
<path fill-rule="evenodd" clip-rule="evenodd" d="M26.9942 14.1894C27.6034 14.1786 27.6716 13.2633 27.3041 13.1712C26.9312 13.0792 26.6004 13.7724 26.9942 14.1894Z" fill="#F8B02B" style="fill:#F8B02B;fill:color(display-p3 0.9725 0.6902 0.1686);fill-opacity:1;"/>
<path fill-rule="evenodd" clip-rule="evenodd" d="M16.0232 13.7399C15.7396 13.7344 15.1883 13.9186 15.4823 14.1948C15.5769 14.2814 15.8132 14.211 15.8919 14.1569C16.0074 14.0702 16.0337 13.924 16.0284 13.7399H16.0232Z" fill="#E41D2C" style="fill:#E41D2C;fill:color(display-p3 0.8941 0.1137 0.1725);fill-opacity:1;"/>
<path fill-rule="evenodd" clip-rule="evenodd" d="M21.168 14.1082L21.9189 14.1136L21.8296 13.7833H21.2205L21.168 14.1082Z" fill="#E41D2C" style="fill:#E41D2C;fill:color(display-p3 0.8941 0.1137 0.1725);fill-opacity:1;"/>
<path fill-rule="evenodd" clip-rule="evenodd" d="M24.0302 14.1948C24.361 14.3194 24.6078 14.1244 24.592 13.7562C24.277 13.6966 23.9567 13.8374 24.0302 14.1948Z" fill="#F8B02B" style="fill:#F8B02B;fill:color(display-p3 0.9725 0.6902 0.1686);fill-opacity:1;"/>
<path fill-rule="evenodd" clip-rule="evenodd" d="M21.2148 13.7833H21.824V13.4854L21.3094 13.4583L21.2148 13.7833Z" fill="#F8B02B" style="fill:#F8B02B;fill:color(display-p3 0.9725 0.6902 0.1686);fill-opacity:1;"/>
<path fill-rule="evenodd" clip-rule="evenodd" d="M19.5391 13.4582H20.1639C20.1482 13.2308 20.1429 13.2741 20.0327 13.1116C19.7229 13.0683 19.6073 13.182 19.5391 13.4582Z" fill="#E41D2C" style="fill:#E41D2C;fill:color(display-p3 0.8941 0.1137 0.1725);fill-opacity:1;"/>
<path fill-rule="evenodd" clip-rule="evenodd" d="M18.6562 13.5504C18.7455 13.7724 18.609 13.6912 18.7823 13.7724L18.9713 13.7778L18.9923 13.4854L18.7875 13.48C18.6825 13.4583 18.7403 13.4962 18.6983 13.415L18.6615 13.545L18.6562 13.5504Z" fill="#F8B02B" style="fill:#F8B02B;fill:color(display-p3 0.9725 0.6902 0.1686);fill-opacity:1;"/>
<defs>
<linearGradient id="paint0_linear_1566_607" x1="20.4179" y1="5.94322" x2="20.4179" y2="20.7187" gradientUnits="userSpaceOnUse">
<stop stop-color="#1D4C80" style="stop-color:#1D4C80;stop-color:color(display-p3 0.1137 0.2980 0.5020);stop-opacity:1;"/>
<stop offset="1" stop-color="#173A63" style="stop-color:#173A63;stop-color:color(display-p3 0.0902 0.2275 0.3882);stop-opacity:1;"/>
</linearGradient>
</defs>
</svg>
