<svg width="39" height="26" viewBox="0 0 39 26" fill="none" xmlns="http://www.w3.org/2000/svg">
<rect x="0.449219" y="1" width="38.3275" height="24" rx="3.4221" fill="white" stroke="#666666" style="fill:white;fill-opacity:1;stroke:#666666;stroke:color(display-p3 0.3985 0.3985 0.3985);stroke-opacity:1;" stroke-width="0.273768"/>
<g clip-path="url(#clip0_1566_605)">
<path d="M24.696 9.24752C24.7215 9.03384 24.7348 8.81628 24.7348 8.5955C24.7348 6.73976 23.2762 5.23535 21.4769 5.23535H16.0321C15.6896 5.23535 15.3972 5.49043 15.3404 5.83875L13.3341 18.1372C13.2621 18.5785 13.592 18.9806 14.0258 18.9806H16.0171C16.3596 18.9806 16.6575 18.7257 16.7143 18.3774C16.7143 18.3774 16.7176 18.357 16.7236 18.3202H16.7237L16.4462 20.0213C16.3828 20.4103 16.6735 20.7648 17.0559 20.7648H18.7979C19.0998 20.7648 19.3576 20.5399 19.4076 20.2329L19.9025 17.1992C19.9879 16.6762 20.4268 16.2933 20.941 16.2933H21.3986C23.8846 16.2933 25.8998 14.2149 25.8998 11.6511C25.8998 10.659 25.4243 9.78201 24.696 9.24752Z" fill="#002987" style="fill:#002987;fill:color(display-p3 0.0000 0.1608 0.5294);fill-opacity:1;"/>
<path d="M24.6961 9.24744C24.3845 11.8613 22.2244 13.8853 19.6058 13.8853H18.0864C17.7435 13.8853 17.4473 14.1209 17.3544 14.454L16.4462 20.0212C16.3828 20.4102 16.6735 20.7647 17.0559 20.7647H18.798C19.0999 20.7647 19.3576 20.5398 19.4076 20.2328L19.9026 17.1991C19.9879 16.6762 20.4269 16.2932 20.941 16.2932H21.3987C23.8846 16.2932 25.8998 14.2148 25.8998 11.651C25.8998 10.6589 25.4243 9.78193 24.6961 9.24744Z" fill="#0085CC" style="fill:#0085CC;fill:color(display-p3 0.0000 0.5216 0.8000);fill-opacity:1;"/>
<path d="M18.0836 13.8853H19.603C22.2216 13.8853 24.3817 11.8613 24.6932 9.24744C24.226 8.90452 23.655 8.70215 23.0378 8.70215H19.0721C18.6205 8.70215 18.235 9.03843 18.1601 9.49764L17.3516 14.4539C17.4445 14.1209 17.7407 13.8853 18.0836 13.8853Z" fill="#00186A" style="fill:#00186A;fill:color(display-p3 0.0000 0.0941 0.4157);fill-opacity:1;"/>
</g>
<defs>
<clipPath id="clip0_1566_605">
<rect width="15.0572" height="15.5294" fill="white" style="fill:white;fill-opacity:1;" transform="translate(12.082 5.23535)"/>
</clipPath>
</defs>
</svg>
