<svg width="40" height="26" viewBox="0 0 40 26" fill="none" xmlns="http://www.w3.org/2000/svg">
<rect x="0.671875" y="1" width="38.3275" height="24" rx="3.4221" fill="white" stroke="#666666" style="fill:white;fill-opacity:1;stroke:#666666;stroke:color(display-p3 0.3985 0.3985 0.3985);stroke-opacity:1;" stroke-width="0.273768"/>
<path d="M16.2227 16.5626L17.5234 9.01624H19.5559L18.2958 16.5626H16.2227Z" fill="#3C58BF" style="fill:#3C58BF;fill:color(display-p3 0.2353 0.3451 0.7490);fill-opacity:1;"/>
<path d="M16.2227 16.5626L17.8893 9.01624H19.5559L18.2958 16.5626H16.2227Z" fill="#293688" style="fill:#293688;fill:color(display-p3 0.1608 0.2118 0.5333);fill-opacity:1;"/>
<path d="M25.649 9.1001C25.2426 8.93241 24.5922 8.76471 23.7792 8.76471C21.7467 8.76471 20.2833 9.81281 20.2833 11.3221C20.2833 12.454 21.2996 13.041 22.1125 13.4183C22.9255 13.7956 23.1694 14.0472 23.1694 14.3825C23.1694 14.8856 22.519 15.1372 21.95 15.1372C21.137 15.1372 20.6898 15.0114 19.9988 14.7179L19.7142 14.5922L19.4297 16.3111C19.9175 16.5207 20.8118 16.7303 21.7467 16.7303C23.9011 16.7303 25.3239 15.6822 25.3239 14.0891C25.3239 13.2087 24.7954 12.5379 23.5759 11.9929C22.8442 11.6156 22.3971 11.4059 22.3971 11.0286C22.3971 10.6932 22.7629 10.3578 23.5759 10.3578C24.267 10.3578 24.7548 10.4836 25.1206 10.6513L25.3239 10.7351L25.649 9.1001Z" fill="#3C58BF" style="fill:#3C58BF;fill:color(display-p3 0.2353 0.3451 0.7490);fill-opacity:1;"/>
<path d="M25.649 9.1001C25.2426 8.93241 24.5922 8.76471 23.7792 8.76471C21.7467 8.76471 20.6492 9.81281 20.6492 11.3221C20.6492 12.454 21.2996 13.041 22.1125 13.4183C22.9255 13.7956 23.1694 14.0472 23.1694 14.3825C23.1694 14.8856 22.519 15.1372 21.95 15.1372C21.137 15.1372 20.6898 15.0114 19.9988 14.7179L19.7142 14.5922L19.4297 16.3111C19.9175 16.5207 20.8118 16.7303 21.7467 16.7303C23.9011 16.7303 25.3239 15.6822 25.3239 14.0891C25.3239 13.2087 24.7954 12.5379 23.5759 11.9929C22.8442 11.6156 22.3971 11.4059 22.3971 11.0286C22.3971 10.6932 22.7629 10.3578 23.5759 10.3578C24.267 10.3578 24.7548 10.4836 25.1206 10.6513L25.3239 10.7351L25.649 9.1001Z" fill="#293688" style="fill:#293688;fill:color(display-p3 0.1608 0.2118 0.5333);fill-opacity:1;"/>
<path d="M29.1525 9.01624C28.6647 9.01624 28.2988 9.05816 28.0956 9.56125L25.0469 16.5626H27.2419L27.6484 15.3049H30.25L30.4939 16.5626H32.4451L30.7378 9.01624H29.1525ZM28.2175 14.0471C28.3395 13.6698 29.0305 11.8252 29.0305 11.8252C29.0305 11.8252 29.1931 11.364 29.3151 11.0705L29.437 11.7832C29.437 11.7832 29.8435 13.6698 29.9248 14.0891H28.2175V14.0471Z" fill="#3C58BF" style="fill:#3C58BF;fill:color(display-p3 0.2353 0.3451 0.7490);fill-opacity:1;"/>
<path d="M29.6403 9.01624C29.1525 9.01624 28.7866 9.05816 28.5834 9.56125L25.0469 16.5626H27.2419L27.6484 15.3049H30.25L30.4939 16.5626H32.4451L30.7378 9.01624H29.6403ZM28.2175 14.0471C28.3801 13.6279 29.0305 11.8252 29.0305 11.8252C29.0305 11.8252 29.1931 11.364 29.3151 11.0705L29.437 11.7832C29.437 11.7832 29.8435 13.6698 29.9248 14.0891H28.2175V14.0471Z" fill="#293688" style="fill:#293688;fill:color(display-p3 0.1608 0.2118 0.5333);fill-opacity:1;"/>
<path d="M12.4862 14.2987L12.283 13.2087C11.9171 11.951 10.7383 10.5675 9.4375 9.89671L11.2667 16.6046H13.4618L16.7544 9.05823H14.5593L12.4862 14.2987Z" fill="#3C58BF" style="fill:#3C58BF;fill:color(display-p3 0.2353 0.3451 0.7490);fill-opacity:1;"/>
<path d="M12.4862 14.2987L12.283 13.2087C11.9171 11.951 10.7383 10.5675 9.4375 9.89671L11.2667 16.6046H13.4618L16.7544 9.05823H14.9658L12.4862 14.2987Z" fill="#293688" style="fill:#293688;fill:color(display-p3 0.1608 0.2118 0.5333);fill-opacity:1;"/>
<path d="M6.83594 9.01624L7.20178 9.10008C9.80335 9.72895 11.5919 11.3221 12.283 13.2087L11.5513 9.6451C11.4293 9.14201 11.0635 9.01624 10.6163 9.01624H6.83594Z" fill="#FFBC00" style="fill:#FFBC00;fill:color(display-p3 1.0000 0.7373 0.0000);fill-opacity:1;"/>
<path d="M6.83594 9.01624C9.4375 9.6451 11.5919 11.2801 12.283 13.1667L11.5919 10.1901C11.47 9.68702 11.0635 9.39355 10.6163 9.39355L6.83594 9.01624Z" fill="#F7981D" style="fill:#F7981D;fill:color(display-p3 0.9686 0.5961 0.1137);fill-opacity:1;"/>
<path d="M6.83594 9.01624C9.4375 9.6451 11.5919 11.2801 12.283 13.1667L11.7952 11.5317C11.6732 11.0286 11.5106 10.5255 10.9415 10.3159L6.83594 9.01624Z" fill="#ED7C00" style="fill:#ED7C00;fill:color(display-p3 0.9294 0.4863 0.0000);fill-opacity:1;"/>
<path d="M14.5171 14.0472L13.135 12.6217L12.4846 14.2149L12.322 13.1667C11.9562 11.909 10.7773 10.5255 9.47656 9.85474L11.3058 16.5626H13.5009L14.5171 14.0472Z" fill="#051244" style="fill:#051244;fill:color(display-p3 0.0196 0.0706 0.2667);fill-opacity:1;"/>
<path d="M18.2958 16.5626L16.5479 14.7179L16.2227 16.5626H18.2958Z" fill="#051244" style="fill:#051244;fill:color(display-p3 0.0196 0.0706 0.2667);fill-opacity:1;"/>
<path d="M22.9662 13.9633C23.1288 14.131 23.2101 14.2567 23.1694 14.4244C23.1694 14.9275 22.519 15.1791 21.95 15.1791C21.137 15.1791 20.6898 15.0533 19.9988 14.7598L19.7142 14.634L19.4297 16.3529C19.9175 16.5626 20.8118 16.7722 21.7467 16.7722C23.0475 16.7722 24.1044 16.3949 24.7141 15.7241L22.9662 13.9633Z" fill="#051244" style="fill:#051244;fill:color(display-p3 0.0196 0.0706 0.2667);fill-opacity:1;"/>
<path d="M25.3281 16.5626H27.2386L27.6451 15.3049H30.2467L30.4906 16.5626H32.4418L31.7507 13.5022L29.3118 11.0706L29.4337 11.7413C29.4337 11.7413 29.8402 13.6279 29.9215 14.0472H28.2142C28.3768 13.6279 29.0272 11.8252 29.0272 11.8252C29.0272 11.8252 29.1898 11.364 29.3118 11.0706" fill="#051244" style="fill:#051244;fill:color(display-p3 0.0196 0.0706 0.2667);fill-opacity:1;"/>
</svg>
