<svg width="34" height="34" viewBox="0 0 34 34" fill="none" xmlns="http://www.w3.org/2000/svg">
<mask id="mask0_1366_122" style="mask-type:alpha" maskUnits="userSpaceOnUse" x="0" y="0" width="34" height="34">
<rect width="34" height="34" fill="#D9D9D9" style="fill:#D9D9D9;fill:color(display-p3 0.8510 0.8510 0.8510);fill-opacity:1;"/>
</mask>
<g mask="url(#mask0_1366_122)">
<path d="M26.4839 0H16.6129C15.886 0.000870761 15.189 0.290032 14.675 0.804056C14.161 1.31808 13.8718 2.015 13.871 2.74194V9.87097H13.3226C13.1772 9.871 13.0377 9.9288 12.9349 10.0316L7.22397 15.7425C7.07059 15.8949 6.949 16.0763 6.86625 16.276C6.7835 16.4758 6.74125 16.69 6.74194 16.9062V29.0645H5.64516C5.20884 29.0645 4.79038 29.2378 4.48186 29.5464C4.17333 29.8549 4 30.2734 4 30.7097V33.4516C4 33.5971 4.05778 33.7365 4.16062 33.8394C4.26346 33.9422 4.40295 34 4.54839 34H19.9032C20.0487 34 20.1882 33.9422 20.291 33.8394C20.3938 33.7365 20.4516 33.5971 20.4516 33.4516V30.7097C20.4516 30.2734 20.2783 29.8549 19.9698 29.5464C19.6612 29.2378 19.2428 29.0645 18.8065 29.0645H17.7097V26.871H18.2581C18.8398 26.871 19.3978 26.6399 19.8091 26.2285C20.2205 25.8171 20.4516 25.2592 20.4516 24.6774V23.5806H26.4839C27.2108 23.5798 27.9077 23.2906 28.4217 22.7766C28.9358 22.2626 29.2249 21.5656 29.2258 20.8387V2.74194C29.2249 2.015 28.9358 1.31808 28.4217 0.804056C27.9077 0.290032 27.2108 0.000870761 26.4839 0ZM19.3548 30.7097V32.9032H5.09677V30.7097C5.09677 30.5642 5.15455 30.4248 5.25739 30.3219C5.36024 30.2191 5.49972 30.1613 5.64516 30.1613H18.8065C18.9519 30.1613 19.0914 30.2191 19.1942 30.3219C19.2971 30.4248 19.3548 30.5642 19.3548 30.7097ZM19.3548 24.6774C19.3548 24.9683 19.2393 25.2473 19.0336 25.453C18.8279 25.6586 18.5489 25.7742 18.2581 25.7742H17.1613C17.0158 25.7742 16.8764 25.832 16.7735 25.9348C16.6707 26.0377 16.6129 26.1771 16.6129 26.3226V29.0645H7.83871V16.9062C7.83865 16.8341 7.85281 16.7627 7.88039 16.6961C7.90796 16.6295 7.9484 16.5689 7.99939 16.518L13.5496 10.9677H13.871V13.4826L9.64455 17.7091L10.42 18.4845L15.8846 13.0204C16.1468 12.7663 16.4983 12.6256 16.8634 12.6284C17.2284 12.6313 17.5777 12.7776 17.8358 13.0357C18.0939 13.2939 18.2402 13.6431 18.2431 14.0082C18.2459 14.3732 18.1052 14.7247 17.8512 14.9869L11.2897 21.5478C11.1869 21.6506 11.1291 21.7901 11.1291 21.9355C11.1291 22.0809 11.1869 22.2204 11.2897 22.3232L11.9324 22.9654C12.2404 23.2743 12.4133 23.6928 12.4133 24.129C12.4133 24.5653 12.2404 24.9837 11.9324 25.2927L11.2897 25.9349L12.0651 26.7103L12.7078 26.0681C13.2209 25.5532 13.5089 24.8559 13.5089 24.129C13.5089 23.4021 13.2209 22.7049 12.7078 22.1899L12.4528 21.9355L13.871 20.5174V20.8387C13.8718 21.5656 14.161 22.2626 14.675 22.7766C15.189 23.2906 15.886 23.5798 16.6129 23.5806H19.3548V24.6774ZM28.129 20.8387C28.129 21.275 27.9557 21.6935 27.6472 22.002C27.3386 22.3105 26.9202 22.4839 26.4839 22.4839H16.6129C16.1766 22.4839 15.7581 22.3105 15.4496 22.002C15.1411 21.6935 14.9677 21.275 14.9677 20.8387V19.4206L18.6266 15.7623C19.093 15.2959 19.355 14.6632 19.355 14.0036C19.355 13.344 19.093 12.7114 18.6266 12.2449C18.1601 11.7785 17.5275 11.5165 16.8679 11.5165C16.2083 11.5165 15.5757 11.7785 15.1092 12.2449L14.9677 12.3859V2.74194C14.9677 2.30561 15.1411 1.88716 15.4496 1.57863C15.7581 1.2701 16.1766 1.09677 16.6129 1.09677H26.4839C26.9202 1.09677 27.3386 1.2701 27.6472 1.57863C27.9557 1.88716 28.129 2.30561 28.129 2.74194V20.8387Z" fill="black" style="fill:black;fill-opacity:1;"/>
<path d="M26.4842 3.83901C26.4842 3.40269 26.3109 2.98423 26.0024 2.6757C25.6939 2.36718 25.2754 2.19385 24.8391 2.19385H18.2584C17.8221 2.19385 17.4037 2.36718 17.0951 2.6757C16.7866 2.98423 16.6133 3.40269 16.6133 3.83901C16.6133 4.27533 16.7866 4.69379 17.0951 5.00231C17.4037 5.31084 17.8221 5.48417 18.2584 5.48417H24.8391C25.2754 5.48417 25.6939 5.31084 26.0024 5.00231C26.3109 4.69379 26.4842 4.27533 26.4842 3.83901ZM17.7101 3.83901C17.7101 3.69357 17.7678 3.55408 17.8707 3.45124C17.9735 3.3484 18.113 3.29062 18.2584 3.29062H24.8391C24.9845 3.29062 25.124 3.3484 25.2269 3.45124C25.3297 3.55408 25.3875 3.69357 25.3875 3.83901C25.3875 3.98445 25.3297 4.12393 25.2269 4.22678C25.124 4.32962 24.9845 4.3874 24.8391 4.3874H18.2584C18.113 4.3874 17.9735 4.32962 17.8707 4.22678C17.7678 4.12393 17.7101 3.98445 17.7101 3.83901Z" fill="black" style="fill:black;fill-opacity:1;"/>
<path d="M16.0664 6.58154H17.1632V10.9686H16.0664V6.58154Z" fill="black" style="fill:black;fill-opacity:1;"/>
<path d="M18.8066 6.5813H19.9034V10.9684H18.8066V6.5813Z" fill="black" style="fill:black;fill-opacity:1;"/>
<path d="M21 6.5813H22.0968V10.9684H21V6.5813Z" fill="black" style="fill:black;fill-opacity:1;"/>
<path d="M25.9336 6.58154H27.0304V10.9686H25.9336V6.58154Z" fill="black" style="fill:black;fill-opacity:1;"/>
<path d="M23.7383 6.58154H24.8351V10.9686H23.7383V6.58154Z" fill="black" style="fill:black;fill-opacity:1;"/>
<path d="M16.6133 20.291H26.4842V21.3878H16.6133V20.291Z" fill="black" style="fill:black;fill-opacity:1;"/>
</g>
</svg>
