<svg width="34" height="34" viewBox="0 0 34 34" fill="none" xmlns="http://www.w3.org/2000/svg">
<mask id="mask0_1366_124" style="mask-type:alpha" maskUnits="userSpaceOnUse" x="0" y="0" width="34" height="34">
<rect width="34" height="34" fill="#D9D9D9" style="fill:#D9D9D9;fill:color(display-p3 0.8510 0.8510 0.8510);fill-opacity:1;"/>
</mask>
<g mask="url(#mask0_1366_124)">
<path d="M11.5597 30.2765C9.32527 27.809 7.46087 25.0303 6.02481 22.0273C5.99523 21.9636 5.95332 21.9064 5.9015 21.859C5.84967 21.8116 5.78896 21.7749 5.72288 21.7511C5.65679 21.7273 5.58665 21.7169 5.51651 21.7204C5.44636 21.7239 5.37761 21.7413 5.31422 21.7715C5.25083 21.8017 5.19407 21.8442 5.14721 21.8966C5.10036 21.9489 5.06435 22.01 5.04125 22.0763C5.01816 22.1426 5.00845 22.2129 5.01268 22.283C5.01692 22.3531 5.03501 22.4217 5.06591 22.4847C6.54625 25.5806 8.46817 28.4451 10.7716 30.9887C11.4256 31.7125 12.1152 32.4342 12.8214 33.1336C12.8709 33.1831 12.9297 33.2222 12.9944 33.2489C13.059 33.2755 13.1283 33.2891 13.1982 33.289C13.2682 33.2888 13.3374 33.2748 13.4019 33.2478C13.4664 33.2208 13.525 33.1813 13.5742 33.1316C13.6234 33.0819 13.6624 33.023 13.6888 32.9583C13.7152 32.8935 13.7285 32.8241 13.728 32.7542C13.7276 32.6843 13.7133 32.6151 13.6861 32.5507C13.6588 32.4863 13.6191 32.4279 13.5692 32.3789C12.8767 31.6932 12.2005 30.9854 11.5597 30.2765Z" fill="black" style="fill:black;fill-opacity:1;"/>
<path d="M6.85691 27.6465C6.81812 27.588 6.7681 27.5377 6.70975 27.4986C6.65141 27.4595 6.58589 27.4324 6.51699 27.4188C6.44809 27.4052 6.37718 27.4053 6.30835 27.4193C6.23952 27.4333 6.17415 27.4608 6.11601 27.5002C6.05788 27.5396 6.00813 27.5901 5.96965 27.6489C5.93117 27.7076 5.90472 27.7734 5.89183 27.8425C5.87895 27.9115 5.87988 27.9824 5.89457 28.0511C5.90926 28.1198 5.93742 28.1848 5.97743 28.2426C6.76744 29.4086 7.62535 30.5272 8.54673 31.5925C8.63893 31.699 8.76968 31.7646 8.91022 31.7747C9.05076 31.7849 9.18957 31.7388 9.29612 31.6466C9.40268 31.5544 9.46824 31.4236 9.47839 31.2831C9.48854 31.1426 9.44244 31.0037 9.35024 30.8972C8.45611 29.8635 7.62356 28.778 6.85691 27.6465Z" fill="black" style="fill:black;fill-opacity:1;"/>
<path d="M11.7872 2.22424C13.4971 1.45932 15.349 1.06348 17.2222 1.06254C20.0591 1.0624 22.8203 1.97766 25.0954 3.67229C25.9383 4.29541 26.7053 5.0153 27.3804 5.8172C27.4253 5.87101 27.4803 5.91543 27.5423 5.9479C27.6043 5.98038 27.6722 6.00027 27.7419 6.00643C27.8117 6.01259 27.882 6.0049 27.9487 5.9838C28.0155 5.9627 28.0775 5.92861 28.131 5.88348C28.1845 5.83836 28.2286 5.7831 28.2608 5.72087C28.2929 5.65864 28.3124 5.59068 28.3181 5.5209C28.3239 5.45111 28.3158 5.38087 28.2943 5.31422C28.2728 5.24758 28.2384 5.18584 28.1929 5.13255C27.4641 4.26708 26.6362 3.49016 25.7262 2.81771C23.9908 1.52771 21.985 0.648936 19.8602 0.24776C17.7355 -0.153415 15.5473 -0.0664993 13.4611 0.501944C12.74 0.69787 12.0352 0.949462 11.3531 1.25445C11.2274 1.31385 11.13 1.42014 11.0818 1.55052C11.0336 1.6809 11.0384 1.82499 11.0952 1.95186C11.152 2.07873 11.2563 2.17828 11.3857 2.22916C11.515 2.28003 11.6592 2.27817 11.7872 2.22398V2.22424Z" fill="black" style="fill:black;fill-opacity:1;"/>
<path d="M5.99288 6.29003C6.10423 6.37636 6.2453 6.41493 6.38508 6.39724C6.52486 6.37956 6.65189 6.30708 6.73822 6.19574C7.66533 4.99759 8.7915 3.96774 10.0675 3.15116C10.1862 3.07518 10.2699 2.95517 10.3 2.81753C10.3302 2.67989 10.3045 2.53589 10.2285 2.41721C10.1909 2.35845 10.1421 2.30767 10.0848 2.26778C10.0276 2.22788 9.96306 2.19966 9.89491 2.18471C9.75727 2.15451 9.61327 2.18023 9.49459 2.25621C8.11636 3.13819 6.89999 4.2505 5.89859 5.54456C5.85582 5.5997 5.82433 5.66272 5.80593 5.73002C5.78752 5.79733 5.78255 5.8676 5.79131 5.93683C5.80007 6.00606 5.82237 6.07288 5.85696 6.13348C5.89155 6.19409 5.93773 6.24728 5.99288 6.29003Z" fill="black" style="fill:black;fill-opacity:1;"/>
<path d="M5.98639 11.0849C6.05242 11.1075 6.12224 11.1168 6.19187 11.1124C6.2615 11.108 6.32958 11.0899 6.39222 11.0592C6.45486 11.0284 6.51084 10.9857 6.55694 10.9333C6.60305 10.8809 6.63839 10.82 6.66094 10.754C7.4099 8.54768 8.83114 6.63142 10.725 5.27432C12.6189 3.91721 14.8904 3.18744 17.2203 3.18749C22.0642 3.18749 26.4471 6.42146 27.8788 11.0511C27.8826 11.0636 27.887 11.0761 27.8921 11.0884C28.0355 11.441 28.2036 11.7831 28.3953 12.112C28.4301 12.1725 28.4764 12.2255 28.5316 12.2682C28.5869 12.3108 28.65 12.3421 28.7173 12.3603C28.7846 12.3785 28.8549 12.3833 28.9241 12.3744C28.9933 12.3655 29.0601 12.343 29.1206 12.3083C29.1811 12.2735 29.2341 12.2272 29.2768 12.172C29.3194 12.1167 29.3507 12.0537 29.3689 11.9863C29.3871 11.919 29.3919 11.8487 29.383 11.7795C29.3741 11.7103 29.3516 11.6436 29.3169 11.583C29.1545 11.3044 29.0112 11.0151 28.8879 10.7172C27.3132 5.65739 22.5184 2.125 17.2203 2.125C14.6687 2.12498 12.1812 2.92408 10.107 4.4101C8.03285 5.89613 6.47615 7.99445 5.65549 10.4105C5.60994 10.5438 5.6192 10.6897 5.68126 10.8162C5.74331 10.9427 5.85307 11.0394 5.98639 11.0849Z" fill="black" style="fill:black;fill-opacity:1;"/>
<path d="M13.1341 28.8509C8.32628 23.5309 6.72657 18.2693 6.45463 17.2686C6.04844 15.7845 5.95661 14.2319 6.18503 12.7103C6.1956 12.6411 6.19244 12.5706 6.1757 12.5027C6.15897 12.4348 6.129 12.3709 6.08751 12.3147C6.04602 12.2584 5.99383 12.2108 5.93393 12.1748C5.87403 12.1387 5.8076 12.1148 5.73845 12.1045C5.6693 12.0941 5.59879 12.0975 5.53096 12.1145C5.46314 12.1315 5.39932 12.1617 5.34319 12.2034C5.28705 12.245 5.2397 12.2974 5.20384 12.3574C5.16798 12.4174 5.14432 12.484 5.13422 12.5531C4.88394 14.2201 4.98445 15.921 5.42933 17.5469C5.71235 18.5888 7.37601 24.0639 12.3458 29.5636C12.5967 29.8412 12.8546 30.1204 13.1125 30.3933C13.2093 30.4957 13.3428 30.5555 13.4837 30.5595C13.6246 30.5635 13.7614 30.5114 13.8638 30.4145C13.9663 30.3177 14.0261 30.1842 14.0301 30.0433C14.0341 29.9024 13.9819 29.7657 13.8851 29.6632C13.6324 29.3962 13.3798 29.1228 13.1341 28.8509Z" fill="black" style="fill:black;fill-opacity:1;"/>
<path d="M17.4207 33.0697C16.7439 32.4758 16.0752 31.8581 15.4328 31.2336C15.3318 31.1354 15.1959 31.0813 15.055 31.0833C14.9141 31.0853 14.7798 31.1432 14.6816 31.2442C14.5834 31.3452 14.5293 31.4811 14.5313 31.622C14.5333 31.7629 14.5912 31.8972 14.6922 31.9955C15.3474 32.6324 16.0296 33.2625 16.7199 33.8681C16.7723 33.9141 16.8333 33.9494 16.8994 33.9718C16.9654 33.9943 17.0353 34.0035 17.1049 33.9989C17.1745 33.9944 17.2425 33.9762 17.3051 33.9454C17.3677 33.9145 17.4236 33.8717 17.4696 33.8192C17.5156 33.7668 17.5509 33.7058 17.5733 33.6397C17.5958 33.5737 17.605 33.5039 17.6005 33.4342C17.5959 33.3646 17.5777 33.2966 17.5469 33.234C17.516 33.1714 17.4732 33.1155 17.4207 33.0695V33.0697Z" fill="black" style="fill:black;fill-opacity:1;"/>
<path d="M29.2965 15.032C29.1628 14.8898 29.0299 14.7456 28.9015 14.6035C27.5417 13.0988 26.9636 11.6343 26.881 11.413C26.5738 10.4016 26.1078 9.44541 25.5005 8.58025C25.4608 8.52236 25.41 8.47292 25.351 8.43479C25.2921 8.39665 25.2261 8.37059 25.157 8.35809C25.0879 8.34559 25.0171 8.34692 24.9485 8.36199C24.8799 8.37705 24.815 8.40557 24.7575 8.44588C24.7 8.48618 24.6511 8.53749 24.6136 8.59682C24.576 8.65616 24.5506 8.72235 24.5388 8.79156C24.527 8.86077 24.529 8.93164 24.5448 9.00006C24.5606 9.06849 24.5897 9.13311 24.6306 9.19019C25.1762 9.96737 25.5941 10.8267 25.8686 11.7357C25.8716 11.7456 25.8748 11.7553 25.8784 11.765C25.9893 12.0678 26.6186 13.6619 28.1132 15.3159C28.2461 15.4631 28.384 15.6124 28.5225 15.7598C28.619 15.8625 28.7524 15.9226 28.8932 15.9269C29.034 15.9313 29.1708 15.8795 29.2735 15.783C29.3761 15.6865 29.4362 15.5531 29.4406 15.4123C29.4449 15.2715 29.3931 15.1347 29.2966 15.032H29.2965Z" fill="black" style="fill:black;fill-opacity:1;"/>
<path d="M14.8524 5.62859C16.3189 5.22916 17.8628 5.20794 19.3397 5.56691C20.8166 5.92588 22.1785 6.65334 23.2981 7.68132C23.4023 7.77612 23.54 7.82562 23.6807 7.81894C23.8215 7.81226 23.9538 7.74994 24.0486 7.6457C24.1434 7.54145 24.1929 7.40382 24.1862 7.26308C24.1795 7.12233 24.1172 6.99001 24.013 6.89521C22.7612 5.74707 21.2391 4.93471 19.5885 4.53393C17.9379 4.13315 16.2127 4.15701 14.5738 4.60328C9.20261 6.06222 6.02018 11.619 7.47911 16.9903C7.74381 17.9199 8.07219 18.8302 8.46192 19.7147C8.51778 19.8441 8.62274 19.9459 8.75371 19.9979C8.88468 20.0499 9.03092 20.0477 9.16027 19.9918C9.28962 19.9359 9.39148 19.831 9.44345 19.7C9.49541 19.569 9.49322 19.4228 9.43735 19.2934C9.06743 18.4553 8.75562 17.5927 8.50415 16.7118C7.19915 11.9059 10.0468 6.93393 14.8524 5.62859Z" fill="black" style="fill:black;fill-opacity:1;"/>
<path d="M20.3068 32.7301C18.3082 31.1082 16.4371 29.3352 14.7099 27.4267C12.9676 25.504 11.4789 23.3661 10.2799 21.0651C10.2481 21.0026 10.2042 20.9471 10.1508 20.9017C10.0974 20.8563 10.0355 20.8219 9.96879 20.8005C9.90205 20.7791 9.83173 20.7711 9.76189 20.777C9.69205 20.7829 9.62407 20.8026 9.56186 20.8349C9.49965 20.8672 9.44445 20.9115 9.39944 20.9652C9.35442 21.0189 9.32048 21.081 9.29958 21.1479C9.27867 21.2148 9.27121 21.2852 9.27762 21.355C9.28403 21.4248 9.30419 21.4926 9.33694 21.5546C10.5777 23.9362 12.1185 26.149 13.9216 28.139C15.6853 30.088 17.5961 31.8986 19.6371 33.5549C19.7465 33.6437 19.8867 33.6855 20.0269 33.6709C20.167 33.6564 20.2956 33.5867 20.3844 33.4773C20.4732 33.3679 20.515 33.2278 20.5004 33.0876C20.4859 32.9475 20.4162 32.8188 20.3068 32.73V32.7301Z" fill="black" style="fill:black;fill-opacity:1;"/>
<path d="M23.8524 12.4162C23.9301 12.6411 24.6664 14.6735 26.5345 16.7407C27.1211 17.3899 27.7528 18.0351 28.4121 18.6583C28.5145 18.7551 28.6512 18.8073 28.792 18.8033C28.8617 18.8014 28.9304 18.7857 28.9941 18.7572C29.0578 18.7287 29.1152 18.688 29.1631 18.6373C29.2111 18.5866 29.2485 18.5269 29.2734 18.4617C29.2983 18.3966 29.3101 18.3271 29.3081 18.2574C29.3062 18.1877 29.2905 18.119 29.262 18.0553C29.2335 17.9916 29.1928 17.9342 29.1421 17.8862C28.503 17.282 27.8908 16.6569 27.3225 16.0283C25.6226 14.1474 24.9482 12.3313 24.86 12.0799C24.3656 10.4362 23.3564 8.99467 21.9811 7.96764C20.6059 6.94061 18.9371 6.38233 17.2207 6.375C17.0798 6.375 16.9447 6.43097 16.8451 6.5306C16.7454 6.63023 16.6895 6.76535 16.6895 6.90625C16.6895 7.04714 16.7454 7.18227 16.8451 7.28189C16.9447 7.38152 17.0798 7.43749 17.2207 7.43749C18.7102 7.44388 20.1583 7.929 21.351 8.82125C22.5438 9.71349 23.4181 10.9656 23.8449 12.3927C23.8472 12.4005 23.8497 12.4084 23.8524 12.4162Z" fill="black" style="fill:black;fill-opacity:1;"/>
<path d="M13.2691 23.9327C13.3094 23.9896 13.3606 24.0381 13.4196 24.0752C13.4786 24.1124 13.5444 24.1376 13.6132 24.1494C13.6819 24.1611 13.7523 24.1592 13.8204 24.1438C13.8884 24.1283 13.9527 24.0996 14.0097 24.0593C14.0666 24.019 14.1151 23.9679 14.1522 23.9088C14.1894 23.8498 14.2146 23.784 14.2264 23.7153C14.2381 23.6465 14.2362 23.5761 14.2208 23.508C14.2053 23.44 14.1766 23.3757 14.1363 23.3187C11.6129 19.7541 10.7111 16.7257 10.556 16.1548C10.0912 14.4352 10.3078 12.6026 11.1608 11.0388C12.0138 9.47502 13.4372 8.30067 15.1347 7.76046C15.269 7.71798 15.381 7.62388 15.4459 7.49884C15.5109 7.37381 15.5235 7.22809 15.481 7.09375C15.4385 6.95941 15.3444 6.84744 15.2194 6.78248C15.0944 6.71752 14.9487 6.7049 14.8143 6.74738C12.8554 7.37028 11.2125 8.72522 10.2282 10.5297C9.24383 12.3343 8.99396 14.4491 9.53067 16.4333C9.7601 17.2778 10.7078 20.3147 13.2691 23.9327Z" fill="black" style="fill:black;fill-opacity:1;"/>
<path d="M22.6507 31.875C20.3584 30.1115 18.229 28.146 16.2881 26.0019C15.9799 25.6609 15.6762 25.3083 15.385 24.9541C15.3409 24.8998 15.2864 24.8547 15.2248 24.8215C15.1632 24.7882 15.0956 24.7675 15.0259 24.7605C14.9563 24.7535 14.8859 24.7603 14.8189 24.7805C14.7519 24.8008 14.6896 24.8341 14.6355 24.8785C14.5814 24.923 14.5366 24.9777 14.5037 25.0394C14.4708 25.1012 14.4505 25.1689 14.4438 25.2386C14.4372 25.3083 14.4444 25.3786 14.465 25.4455C14.4856 25.5124 14.5192 25.5746 14.564 25.6285C14.8654 25.9955 15.1802 26.3608 15.4995 26.7143C17.4839 28.9062 19.6611 30.9156 22.0047 32.7183C22.06 32.7622 22.1234 32.7946 22.1913 32.8137C22.2592 32.8327 22.3302 32.8381 22.4002 32.8294C22.4702 32.8208 22.5378 32.7983 22.599 32.7632C22.6602 32.7282 22.7138 32.6813 22.7567 32.6253C22.7996 32.5693 22.8309 32.5053 22.8488 32.4371C22.8667 32.3689 22.8709 32.2977 22.861 32.2279C22.8511 32.1581 22.8275 32.0909 22.7914 32.0303C22.7552 31.9697 22.7074 31.9169 22.6507 31.875Z" fill="black" style="fill:black;fill-opacity:1;"/>
<path d="M29.1997 20.7889C27.9759 19.755 26.8223 18.6408 25.7466 17.4537C25.3645 17.0306 25.0056 16.5871 24.6715 16.1251C24.5888 16.0115 24.4644 15.9354 24.3256 15.9133C24.1868 15.8913 24.0449 15.9251 23.931 16.0074C23.8171 16.0898 23.7404 16.2139 23.7178 16.3526C23.6953 16.4913 23.7286 16.6333 23.8104 16.7475C24.1671 17.2408 24.5503 17.7143 24.9583 18.1661C26.0658 19.3884 27.2535 20.5355 28.5135 21.5999C28.6212 21.6902 28.7602 21.7341 28.9001 21.7221C29.04 21.7101 29.1695 21.6431 29.2602 21.5359C29.351 21.4287 29.3955 21.2899 29.3842 21.1499C29.3729 21.0099 29.3066 20.8801 29.1998 20.7889H29.1997Z" fill="black" style="fill:black;fill-opacity:1;"/>
<path d="M15.9661 9.7297C17.1781 9.40014 18.4712 9.56087 19.5656 10.1772C20.66 10.7934 21.4679 11.8157 21.8145 13.023C21.8161 13.0285 21.8179 13.034 21.8196 13.0394C21.862 13.1704 22.1004 13.8753 22.6424 14.885C22.6754 14.9465 22.7202 15.0009 22.7742 15.0451C22.8282 15.0892 22.8904 15.1224 22.9572 15.1425C23.024 15.1626 23.0941 15.1694 23.1636 15.1625C23.233 15.1555 23.3004 15.135 23.3618 15.102C23.4233 15.069 23.4777 15.0242 23.5219 14.9702C23.566 14.9162 23.5991 14.854 23.6193 14.7872C23.6394 14.7204 23.6462 14.6503 23.6393 14.5808C23.6323 14.5114 23.6117 14.444 23.5787 14.3826C23.2849 13.85 23.0356 13.294 22.8333 12.7204C22.4057 11.2387 21.4097 9.98612 20.0624 9.23566C18.7152 8.4852 17.1259 8.29773 15.641 8.7141C14.1561 9.13047 12.896 10.1169 12.1353 11.4585C11.3747 12.8 11.1751 14.3878 11.5802 15.8758C11.7965 16.6718 13.0777 20.8664 17.0744 25.289C17.9295 26.2352 18.8394 27.1622 19.7788 28.0444C19.8815 28.1409 20.0183 28.1926 20.1592 28.1881C20.3 28.1837 20.4333 28.1235 20.5298 28.0208C20.6262 27.9181 20.6779 27.7813 20.6735 27.6404C20.6691 27.4996 20.6089 27.3663 20.5062 27.2699C19.5877 26.4074 18.6983 25.5013 17.8627 24.5766C14.0281 20.3332 12.8105 16.3521 12.6055 15.5971C12.2746 14.3734 12.4426 13.0685 13.0726 11.9685C13.7026 10.8686 14.7432 10.0634 15.9661 9.7297Z" fill="black" style="fill:black;fill-opacity:1;"/>
<path d="M24.5855 30.6737C23.763 30.0709 22.9253 29.4053 22.0957 28.6952C21.9883 28.6058 21.8501 28.5624 21.711 28.5742C21.5719 28.586 21.4429 28.6521 21.3522 28.7582C21.2614 28.8643 21.216 29.0019 21.2259 29.1412C21.2358 29.2805 21.3002 29.4103 21.4051 29.5025C22.255 30.2297 23.1137 30.9121 23.9576 31.5306C24.0713 31.613 24.213 31.6471 24.3517 31.6253C24.4904 31.6036 24.6149 31.5278 24.6979 31.4145C24.7809 31.3013 24.8157 31.1598 24.7946 31.0209C24.7736 30.8821 24.6985 30.7573 24.5857 30.6737H24.5855Z" fill="black" style="fill:black;fill-opacity:1;"/>
<path d="M28.9929 23.3562C27.2592 22.0054 25.6457 20.5069 24.1708 18.8775C21.6775 16.1186 20.8494 13.4948 20.7999 13.3326C20.533 12.3862 19.9021 11.5839 19.0453 11.1014C18.1884 10.619 17.1753 10.4955 16.2277 10.7581C15.28 11.0207 14.4749 11.6479 13.9886 12.5026C13.5023 13.3573 13.3742 14.3698 13.6326 15.3186C13.6515 15.3884 13.694 15.5378 13.7646 15.7541C13.809 15.8873 13.9043 15.9976 14.0297 16.0608C14.1551 16.124 14.3004 16.1349 14.4339 16.0913C14.5674 16.0476 14.6781 15.9529 14.7419 15.8278C14.8058 15.7027 14.8175 15.5574 14.7745 15.4238C14.7111 15.2299 14.6743 15.1001 14.6579 15.04C14.4725 14.3617 14.5637 13.6375 14.9115 13.0263C15.2592 12.4151 15.8351 11.9668 16.5129 11.7795C17.1908 11.5923 17.9152 11.6815 18.5273 12.0275C19.1395 12.3736 19.5894 12.9483 19.7785 13.6255C19.7795 13.6289 19.7804 13.6322 19.7814 13.6354C19.8179 13.7562 20.705 16.6272 23.3824 19.5899C24.8993 21.2656 26.5586 22.8066 28.3416 24.1958C28.3968 24.2385 28.4598 24.27 28.5271 24.2884C28.5944 24.3068 28.6646 24.3118 28.7338 24.3031C28.8031 24.2943 28.8699 24.272 28.9305 24.2375C28.9911 24.2029 29.0443 24.1568 29.0871 24.1016C29.1298 24.0465 29.1613 23.9835 29.1797 23.9162C29.1982 23.8489 29.2031 23.7786 29.1944 23.7094C29.1856 23.6402 29.1634 23.5734 29.1288 23.5128C29.0942 23.4522 29.0481 23.399 28.9929 23.3562Z" fill="black" style="fill:black;fill-opacity:1;"/>
<path d="M26.1808 29.2056C24.8518 28.2592 22.2088 26.2143 19.4407 23.1514C17.8632 21.4151 16.5501 19.456 15.5434 17.3371C15.5142 17.2734 15.4727 17.2161 15.4212 17.1685C15.3697 17.1209 15.3093 17.084 15.2435 17.0598C15.1777 17.0357 15.1077 17.0248 15.0377 17.0278C14.9676 17.0309 14.8989 17.0477 14.8354 17.0774C14.7719 17.1072 14.7149 17.1491 14.6677 17.201C14.6205 17.2528 14.584 17.3135 14.5604 17.3795C14.5368 17.4455 14.5264 17.5156 14.53 17.5856C14.5335 17.6556 14.5509 17.7242 14.5811 17.7875C15.6327 20.0017 17.0044 22.049 18.6524 23.8636C21.4879 27.0012 24.2 29.0995 25.5643 30.071C25.679 30.1527 25.8216 30.1855 25.9605 30.1621C26.0995 30.1388 26.2235 30.0611 26.3052 29.9464C26.3869 29.8316 26.4197 29.6891 26.3963 29.5501C26.373 29.4112 26.2953 29.2872 26.1806 29.2054L26.1808 29.2056Z" fill="black" style="fill:black;fill-opacity:1;"/>
<path d="M27.4602 27.5102C26.2013 26.6198 23.6902 24.6844 21.0176 21.727C17.7084 18.0652 16.7477 14.6274 16.7086 14.4829C16.6716 14.347 16.6901 14.2019 16.7601 14.0796C16.8301 13.9573 16.9458 13.8678 17.0818 13.8308C17.2177 13.7938 17.3628 13.8124 17.4851 13.8824C17.6074 13.9523 17.6969 14.068 17.7339 14.204C17.743 14.2372 18.6885 17.5648 21.8059 21.0145C22.0709 21.3077 22.346 21.6029 22.6234 21.8919C22.6716 21.9429 22.7294 21.9838 22.7934 22.0124C22.8575 22.0409 22.9265 22.0565 22.9966 22.0582C23.0667 22.0599 23.1365 22.0477 23.2018 22.0223C23.2672 21.9969 23.3269 21.9589 23.3775 21.9103C23.428 21.8618 23.4685 21.8037 23.4965 21.7394C23.5246 21.6751 23.5396 21.6059 23.5407 21.5358C23.5419 21.4657 23.5292 21.3961 23.5033 21.3309C23.4774 21.2658 23.4389 21.2064 23.3899 21.1562C23.1198 20.8748 22.852 20.5875 22.5942 20.3021C19.6724 17.0687 18.7663 13.9502 18.7582 13.922C18.7031 13.7201 18.6087 13.531 18.4805 13.3656C18.3523 13.2001 18.1928 13.0616 18.011 12.9578C17.8293 12.854 17.6289 12.787 17.4212 12.7607C17.2136 12.7344 17.0028 12.7492 16.8009 12.8043C16.599 12.8595 16.4099 12.9538 16.2445 13.082C16.079 13.2103 15.9405 13.3698 15.8367 13.5515C15.7329 13.7333 15.6659 13.9337 15.6396 14.1414C15.6133 14.349 15.6281 14.5598 15.6832 14.7617C15.7252 14.9163 16.7517 18.5914 20.2293 22.4397C22.9705 25.4729 25.5519 27.4621 26.8467 28.3779C26.9036 28.419 26.9681 28.4484 27.0365 28.4644C27.1048 28.4804 27.1757 28.4828 27.2449 28.4712C27.3142 28.4597 27.3805 28.4346 27.44 28.3973C27.4994 28.36 27.5509 28.3113 27.5915 28.254C27.632 28.1967 27.6608 28.1319 27.6762 28.0634C27.6915 27.9949 27.6931 27.924 27.6809 27.8549C27.6687 27.7857 27.6429 27.7197 27.6051 27.6606C27.5672 27.6015 27.518 27.5504 27.4602 27.5105V27.5102Z" fill="black" style="fill:black;fill-opacity:1;"/>
<path d="M28.4277 25.5922C28.1241 25.3713 27.8054 25.1295 27.4805 24.8734C26.6165 24.1925 25.7501 23.4457 24.9057 22.6537C24.855 22.6052 24.7951 22.5674 24.7297 22.5422C24.6642 22.517 24.5944 22.5051 24.5243 22.507C24.4542 22.509 24.3851 22.5248 24.3212 22.5536C24.2572 22.5824 24.1995 22.6235 24.1516 22.6747C24.1036 22.7258 24.0662 22.786 24.0416 22.8517C24.017 22.9173 24.0056 22.9872 24.0082 23.0573C24.0107 23.1274 24.0271 23.1963 24.0564 23.26C24.0857 23.3238 24.1273 23.3811 24.1789 23.4286C25.0454 24.2414 25.9349 25.0082 26.8228 25.7079C27.1584 25.9724 27.4881 26.2226 27.8027 26.4517C27.8591 26.4935 27.9232 26.5237 27.9913 26.5406C28.0594 26.5575 28.1302 26.5608 28.1996 26.5502C28.269 26.5395 28.3356 26.5153 28.3955 26.4788C28.4555 26.4423 28.5076 26.3943 28.5489 26.3375C28.5901 26.2808 28.6198 26.2164 28.636 26.1481C28.6523 26.0799 28.6549 26.009 28.6436 25.9398C28.6324 25.8705 28.6075 25.8041 28.5704 25.7445C28.5334 25.6849 28.4849 25.6333 28.4277 25.5925V25.5922Z" fill="black" style="fill:black;fill-opacity:1;"/>
</g>
</svg>
