<svg width="34" height="34" viewBox="0 0 34 34" fill="none" xmlns="http://www.w3.org/2000/svg">
<mask id="mask0_1366_123" style="mask-type:alpha" maskUnits="userSpaceOnUse" x="0" y="0" width="34" height="34">
<rect width="34" height="34" fill="#D9D9D9" style="fill:#D9D9D9;fill:color(display-p3 0.8510 0.8510 0.8510);fill-opacity:1;"/>
</mask>
<g mask="url(#mask0_1366_123)">
<path fill-rule="evenodd" clip-rule="evenodd" d="M19.4519 20.8487L12.1603 30.6267C11.9725 30.877 12.0232 31.2322 12.2736 31.42C12.5239 31.6078 12.8791 31.5571 13.0669 31.3067L20.3603 21.5258C20.4817 21.3638 20.5076 21.1494 20.4281 20.9632C20.3485 20.777 20.1757 20.6475 19.9747 20.6232C19.7737 20.599 19.5751 20.6839 19.4537 20.8458L19.4519 20.8487Z" fill="black" style="fill:black;fill-opacity:1;"/>
<path d="M1.66813 23.538L4.69289 24.5483C4.79442 24.5853 4.9016 24.6044 5.00964 24.605C5.18521 24.6042 5.35739 24.5565 5.50826 24.4667L15.8553 18.2677C15.9863 18.6404 16.1448 19.0029 16.3295 19.3522L14.5163 21.7831C14.3646 21.9889 14.2997 22.2461 14.3355 22.4993L14.4851 23.5488L13.3603 23.882C12.9419 24.0035 12.6561 24.3892 12.6616 24.8248C12.6726 25.0619 12.7019 25.2978 12.7495 25.5303L12.7937 25.8137L11.6604 26.1485C11.2005 26.2882 10.9113 26.7425 10.9793 27.2184L11.1023 28.0859L10.0132 28.4101C9.12701 28.6695 8.59531 29.5732 8.79884 30.4738L9.42218 33.2367C9.51594 33.6787 9.90427 33.9961 10.356 34C10.3815 34 10.4076 34 10.4336 33.9966L13.6125 33.779C13.9015 33.7666 14.1693 33.6238 14.3406 33.3909L21.783 23.4122C24.5959 23.98 27.4959 22.9818 29.3633 20.8031C31.2309 18.6243 31.7737 15.6058 30.7824 12.9128C33.1835 11.2703 34.3342 8.32526 33.6827 5.49002C33.0312 2.65477 30.7103 0.507469 27.8331 0.0778357C24.9559 -0.351797 22.109 1.02383 20.6576 3.54505C18.4074 3.51749 16.252 4.45007 14.7316 6.1091C13.2111 7.76814 12.4696 9.99645 12.6928 12.2357L10.0794 13.7985C9.86602 13.9326 9.71276 14.144 9.65154 14.3884L9.39256 15.414L8.22637 15.2939C7.79189 15.2452 7.37853 15.493 7.21664 15.8991C7.13635 16.1268 7.0738 16.3604 7.02964 16.5978L6.96503 16.8692L5.79944 16.7513C5.31622 16.6943 4.86554 17.0044 4.74608 17.4761L4.53246 18.326L3.40373 18.2127C3.02868 18.1706 2.65024 18.2534 2.32712 18.4484C1.88168 18.7087 1.5751 19.1537 1.49076 19.6627L1.01763 22.45C0.925002 22.9256 1.20543 23.3945 1.66813 23.538ZM29.1935 19.1C27.6699 21.7001 24.6082 22.9765 21.6889 22.2285C21.4666 22.1719 21.2322 22.2549 21.0951 22.4387L13.4788 32.6531L10.4988 32.8571L9.90267 30.2289C9.8631 30.0514 9.90214 29.8655 10.0098 29.7189C10.0905 29.6125 10.2034 29.5348 10.3316 29.4973L11.5567 29.133C12.0205 28.9984 12.3129 28.5412 12.2407 28.0638L12.1177 27.1962L13.251 26.8613C13.7155 26.7264 14.008 26.2679 13.9344 25.7898L13.867 25.3523C13.8409 25.1868 13.816 25.0344 13.8024 24.9318L14.9459 24.5936C15.4078 24.4574 15.6981 24.001 15.6258 23.5249L15.4661 22.4029L17.4567 19.7334C17.5936 19.55 17.6068 19.3024 17.4901 19.1055C15.7588 16.1924 16.4366 12.4491 19.0796 10.3282C21.7226 8.20726 25.5239 8.35614 27.9929 10.6772C28.5385 11.1869 28.9949 11.7842 29.3432 12.4446C28.691 12.7567 27.9867 12.9457 27.2659 13.0022C27.0897 11.9429 26.1923 11.1541 25.1192 11.1152C24.0461 11.0762 23.0939 11.798 22.8414 12.8417C22.5889 13.8853 23.1059 14.9625 24.0781 15.4184C25.0503 15.8743 26.2091 15.5829 26.8499 14.7214C26.9783 14.5445 27.0797 14.3495 27.1508 14.1428C28.0641 14.098 28.96 13.8752 29.788 13.4872C30.4139 15.3558 30.197 17.4041 29.1935 19.1ZM24.3204 12.489C24.4776 12.3595 24.667 12.275 24.8684 12.2448C24.9234 12.2369 24.9789 12.2329 25.0344 12.2329C25.513 12.2343 25.9391 12.5361 26.0991 12.9871C25.4838 12.9164 24.8835 12.7482 24.321 12.489H24.3204ZM25.8849 14.1051C25.5998 14.4384 25.1471 14.5759 24.7247 14.4574C24.3023 14.3389 23.9871 13.9861 23.9169 13.5531C24.5425 13.8326 25.2057 14.0185 25.8854 14.105L25.8849 14.1051ZM26.7887 1.13452C29.3583 1.1308 31.6391 2.77961 32.4412 5.22088C33.2433 7.66216 32.3849 10.3423 30.3138 11.8634C29.9113 11.1116 29.3882 10.4309 28.7652 9.84837C28.5952 9.69139 28.4207 9.54916 28.2427 9.40864C28.1325 8.98651 27.987 8.57441 27.8075 8.17679C26.8773 6.11568 25.1046 4.55499 22.9423 3.89354C22.6078 3.79293 22.2671 3.71438 21.9223 3.6584C23.0338 2.07141 24.8513 1.12874 26.7887 1.13452ZM2.61332 19.8514C2.64267 19.6706 2.75164 19.5125 2.91021 19.4208C3.02323 19.3518 3.15604 19.3225 3.28759 19.3375L4.56194 19.4678C5.04111 19.5226 5.48542 19.2103 5.59605 18.7408L5.81027 17.8909L6.98834 18.0121C7.4695 18.0574 7.91155 17.7443 8.02869 17.2755L8.12843 16.8568C8.16807 16.6908 8.2032 16.536 8.22983 16.4335L9.4164 16.5554C9.89504 16.6076 10.3383 16.2971 10.4528 15.8295L10.7327 14.7245L13.588 13.0178C13.784 12.9007 13.8906 12.6772 13.8582 12.4512C13.3733 9.14894 15.3589 5.98347 18.543 4.98263C21.7271 3.98179 25.1667 5.44207 26.6582 8.42799C25.3999 7.8449 24.0094 7.60658 22.6287 7.73726C20.3961 7.9374 18.3524 9.07271 17.0028 10.8626C15.6533 12.6523 15.1239 14.9296 15.5456 17.1312L4.99264 23.4536L2.16224 22.5084L2.61332 19.8514Z" fill="black" style="fill:black;fill-opacity:1;"/>
<path fill-rule="evenodd" clip-rule="evenodd" d="M14.1956 16.6201C14.4598 16.4575 14.5442 16.1127 14.3849 15.8466C14.2256 15.5803 13.8819 15.4918 13.6137 15.6477L4.55125 21.0802C4.37482 21.1828 4.26724 21.3724 4.26957 21.5765C4.27189 21.7807 4.38392 21.9677 4.56268 22.0663C4.74143 22.1648 4.95937 22.1596 5.13322 22.0526L14.1956 16.6201Z" fill="black" style="fill:black;fill-opacity:1;"/>
</g>
</svg>
