<svg width="34" height="34" viewBox="0 0 34 34" fill="none" xmlns="http://www.w3.org/2000/svg">
<mask id="mask0_1366_125" style="mask-type:alpha" maskUnits="userSpaceOnUse" x="0" y="0" width="34" height="34">
<rect width="34" height="34" fill="#D9D9D9" style="fill:#D9D9D9;fill:color(display-p3 0.8510 0.8510 0.8510);fill-opacity:1;"/>
</mask>
<g mask="url(#mask0_1366_125)">
<path d="M8.33901 32.0386H11.2865C12.9951 32.0386 12.9976 29.3765 11.2865 29.3765H8.33901C6.63045 29.3765 6.62792 32.0386 8.33901 32.0386ZM8.33901 30.3726H11.2865C11.7194 30.3726 11.7194 31.0425 11.2865 31.0425H8.33901C7.90611 31.0425 7.90611 30.3726 8.33901 30.3726Z" fill="black" style="fill:black;fill-opacity:1;"/>
<path d="M11.9992 17.1196L8.75464 20.3642L7.63098 19.2405C7.1755 18.7854 6.47126 19.4895 6.92661 19.9449L8.40249 21.4208C8.6373 21.6152 8.87211 21.6152 9.10686 21.4208L12.7036 17.824C13.1589 17.3686 12.4547 16.6645 11.9992 17.1196Z" fill="black" style="fill:black;fill-opacity:1;"/>
<path d="M33.6296 22.0333C33.4285 21.6495 33.2828 21.229 33.1839 20.807C32.6982 18.7754 31.9603 16.8071 30.9909 14.9567L29.3702 11.8631C28.4527 10.1117 25.745 10.4029 25.2338 12.3239C24.0213 11.8876 22.6525 12.6046 22.3209 13.8499C21.3185 13.4892 20.161 13.914 19.6296 14.836V3.89957V1.9459C19.6295 0.872977 18.7566 0 17.6835 0H6.08102C5.43708 0 5.43708 0.996094 6.08102 0.996094H17.6835C18.2073 0.996094 18.6334 1.42216 18.6334 1.9459V3.40153H0.996094V1.9459C0.996094 1.42216 1.42216 0.996094 1.9459 0.996094H3.29202C3.93596 0.996094 3.93596 0 3.29202 0H1.9459C0.872976 0 0 0.872977 0 1.9459V3.89957V27.9044V32.0541C0 33.127 0.872976 34 1.9459 34H17.6835C18.7565 34 19.6295 33.127 19.6295 32.0541V27.9044V25.9095L21.4092 26.7898C21.849 27.0074 22.2105 27.3695 22.4271 27.8098C23.2177 29.4165 25.2442 30.0826 26.836 29.2486L29.8033 27.6941C30.3738 27.3952 29.9115 26.513 29.3411 26.8117L26.3737 28.3663C25.2715 28.944 23.8703 28.4865 23.3209 27.37C23.008 26.7343 22.486 26.2111 21.8508 25.8969L14.2983 22.1612C12.8798 21.4722 13.9056 19.2469 15.3462 19.9188L18.0885 21.3624C18.5116 21.5851 18.9836 21.1141 18.7617 20.6906L13.9978 11.5975C13.2155 10.1268 15.3104 8.76934 16.1095 10.2948L19.4768 16.7222L20.3564 18.401C20.6467 18.9555 21.5367 18.5078 21.2387 17.9388L20.3824 16.3043C20.0356 15.1488 21.4622 14.2171 22.3804 15.0227L23.3333 16.8414C23.6236 17.3958 24.5137 16.9481 24.2156 16.3792L23.2468 14.5299C23.1561 13.4675 24.4572 12.7837 25.2796 13.4845L26.2386 15.3152C26.529 15.8696 27.419 15.4219 27.121 14.853L26.1617 13.022C26.0312 11.7181 27.8664 11.1392 28.4877 12.3253L30.1085 15.4189C31.0396 17.1963 31.7484 19.087 32.215 21.0384C32.3282 21.5446 32.5064 22.0359 32.7472 22.4954C33.3211 23.5908 32.8967 24.9487 31.8015 25.5226C31.2311 25.8215 31.6934 26.7038 32.2637 26.4049C33.8456 25.5762 34.4583 23.6151 33.6296 22.0333ZM18.6334 32.0541C18.6334 32.5778 18.2073 33.0039 17.6835 33.0039H1.9459C1.42216 33.0039 0.996094 32.5778 0.996094 32.0541V28.4025H18.6334V32.0541ZM12.8059 20.081C12.4678 20.7917 12.5335 21.6429 12.9741 22.2946C12.1504 23.1565 11.0204 23.6449 9.81471 23.6449C7.40204 23.6449 5.4392 21.6821 5.4392 19.2694C5.4392 16.8568 7.40204 14.8939 9.81471 14.8939C12.1039 14.8939 13.9869 16.6614 14.1737 18.9032C13.5838 19.0832 13.0711 19.5234 12.8059 20.081ZM16.4221 9.13511C16.205 8.9588 15.9544 8.8232 15.6794 8.73727C14.084 8.23876 12.4773 9.70169 12.8285 11.3354H3.3733C3.28173 11.3354 3.20729 11.261 3.20729 11.1694V7.61016C3.20729 7.51858 3.28173 7.44414 3.3733 7.44414H16.2561C16.3477 7.44414 16.4221 7.51858 16.4221 7.61016V9.13511ZM18.6334 12.966L17.4182 10.6466V7.61016C17.4182 6.9694 16.8969 6.44805 16.2561 6.44805H3.3733C2.73255 6.44805 2.2112 6.9694 2.2112 7.61016V11.1695C2.2112 11.8102 2.73255 12.3316 3.3733 12.3316H13.2577L17.137 19.7359L15.8005 19.0324C15.7946 19.0292 15.7885 19.0262 15.7825 19.0233C15.5846 18.9292 15.3776 18.8657 15.1671 18.8326C14.9438 16.0744 12.6294 13.8978 9.81478 13.8978C6.85286 13.8978 4.44318 16.3075 4.44318 19.2694C4.44318 22.2314 6.85286 24.641 9.81478 24.641C11.3003 24.641 12.6932 24.0387 13.7051 22.9736C15.2852 23.8841 16.9985 24.6082 18.6334 25.4168V27.4063H0.996094V4.39762H18.6334V12.966Z" fill="black" style="fill:black;fill-opacity:1;"/>
</g>
</svg>
